<?xml version="1.0" encoding="UTF-8" standalone="no"?>
<!-- Created with Inkscape (http://www.inkscape.org/) -->

<svg
   xmlns:dc="http://purl.org/dc/elements/1.1/"
   xmlns:cc="http://creativecommons.org/ns#"
   xmlns:rdf="http://www.w3.org/1999/02/22-rdf-syntax-ns#"
   xmlns:svg="http://www.w3.org/2000/svg"
   xmlns="http://www.w3.org/2000/svg"
   xmlns:sodipodi="http://sodipodi.sourceforge.net/DTD/sodipodi-0.dtd"
   xmlns:inkscape="http://www.inkscape.org/namespaces/inkscape"
   width="525.29529"
   height="708.66138"
   id="svg3853"
   version="1.1"
   inkscape:version="0.48.4 r9939"
   sodipodi:docname="cover.svg">
  <defs
     id="defs3855" />
  <sodipodi:namedview
     id="base"
     pagecolor="#ffffff"
     bordercolor="#666666"
     borderopacity="1.0"
     inkscape:pageopacity="0.0"
     inkscape:pageshadow="2"
     inkscape:zoom="0.47740767"
     inkscape:cx="276.25156"
     inkscape:cy="337.15742"
     inkscape:document-units="px"
     inkscape:current-layer="g3125"
     showgrid="false"
     inkscape:window-width="1280"
     inkscape:window-height="745"
     inkscape:window-x="0"
     inkscape:window-y="27"
     inkscape:window-maximized="1"
     units="mm" />
  <metadata
     id="metadata3858">
    <rdf:RDF>
      <cc:Work
         rdf:about="">
        <dc:format>image/svg+xml</dc:format>
        <dc:type
           rdf:resource="http://purl.org/dc/dcmitype/StillImage" />
        <dc:title></dc:title>
      </cc:Work>
    </rdf:RDF>
  </metadata>
  <g
     inkscape:label="Layer 1"
     inkscape:groupmode="layer"
     id="layer1"
     transform="translate(0,-2448.4252)">
    <flowRoot
       xml:space="preserve"
       id="flowRoot3880"
       style="font-size:40px;font-style:normal;font-weight:normal;line-height:125%;letter-spacing:0px;word-spacing:0px;fill:#000000;fill-opacity:1;stroke:none;font-family:Sans"><flowRegion
         id="flowRegion3882"><rect
           id="rect3884"
           width="113.56831"
           height="55.399178"
           x="459.81317"
           y="276.77368" /></flowRegion><flowPara
         id="flowPara3886">VARIAL</flowPara></flowRoot>    <g
       id="g3125"
       transform="matrix(0.61651986,0.03098831,-0.03098831,0.61651986,53.507097,2475.5222)">
      <path
         style="fill:#000000"
         d="M 388.15625 -423.125 C 380.987 -423.05214 374.66094 -417.98149 373.25 -410.65625 L 260.0625 177.03125 L 320.59375 188.6875 C 327.97073 190.1084 332.7959 197.18551 331.375 204.5625 L 273.09375 507.03125 C 271.67285 514.40824 264.59573 519.20215 257.21875 517.78125 L 196.65625 506.09375 L 88.3125 1068.5938 C 86.70001 1076.9654 92.159615 1084.9811 100.53125 1086.5938 L 602.5625 1183.3125 C 610.93415 1184.925 618.98125 1179.4653 620.59375 1171.0938 L 905.5 -308.125 C 907.1125 -316.49669 901.6529 -324.51252 893.28125 -326.125 L 391.28125 -422.84375 C 390.2348 -423.04531 389.18043 -423.13541 388.15625 -423.125 z M 196.65625 506.09375 L 260.0625 177.03125 L 197.8125 165.03125 C 190.43552 163.61035 183.3584 168.40427 181.9375 175.78125 L 123.65625 478.21875 C 122.23534 485.59574 127.02927 492.7041 134.40625 494.125 L 196.65625 506.09375 z M 199.21875 183.28125 L 233.59375 198.03125 L 231.375 207.34375 L 218.65625 201.65625 L 228.15625 215.75 L 221.34375 218.78125 L 210.46875 204.21875 L 194.5 209.59375 L 196.125 200.3125 L 207.5625 197 L 197.59375 192.5625 L 199.21875 183.28125 z M 193.28125 216.3125 L 228.65625 231.0625 C 227.6999 237.29716 226.82766 241.77998 226.1875 244.46875 C 225.00673 250.59906 220.99034 253.01587 214.09375 251.6875 C 212.70176 251.29712 211.42472 250.65884 210.21875 249.9375 C 207.28549 248.0276 204.99683 245.32898 203.40625 241.84375 L 187.21875 245.53125 L 189.125 235.375 L 202.65625 234.1875 L 202.75 230.96875 L 191.21875 226.4375 L 193.28125 216.3125 z M 270.5625 221.40625 L 267.28125 239.0625 C 287.75275 246.31909 300.78656 251.03785 306.375 253.21875 L 309.5625 235.59375 L 301.03125 232.15625 L 299.59375 240.59375 L 292.34375 238.3125 L 293.78125 229.53125 L 286.09375 226.71875 L 284.71875 235.25 L 277.53125 232.6875 L 278.875 224.0625 L 270.5625 221.40625 z M 209.90625 233.75 C 210.27469 237.55003 212.10452 240.11568 215.46875 241.375 C 217.06028 241.68155 218.06564 240.89336 218.40625 239.125 C 218.42896 239.00711 218.4462 238.31807 218.4375 237.09375 L 209.90625 233.75 z M 186.28125 251.09375 L 222.15625 263.5 L 220.84375 272.1875 L 184.65625 259.46875 L 186.28125 251.09375 z M 265.15625 253.96875 L 263.3125 264.8125 L 302 279.4375 L 305.25 259.71875 L 295.6875 255.8125 L 294.15625 264.71875 L 265.15625 253.96875 z M 183.15625 268.5625 C 188.27966 270.52745 200.3345 274.86855 219.21875 281.5625 L 216.1875 297.90625 L 208.53125 295.46875 L 209.78125 287.4375 L 203.125 285.125 L 201.84375 293 L 194.78125 290.4375 L 196.09375 282.3125 L 189.40625 280.15625 L 188.09375 287.96875 L 180.21875 284.8125 L 183.15625 268.5625 z M 267.0625 276.6875 C 265.5627 276.75069 264.16762 277.12267 262.875 277.8125 C 261.05267 278.78693 259.74097 280.21625 258.9375 282.09375 L 257.625 290 L 255.75 300.3125 L 294.53125 315.40625 L 298.90625 292.78125 C 298.67907 290.74941 298.12784 288.82901 297.28125 287.03125 C 295.81396 284.09785 293.72638 282.36892 291 281.84375 C 286.08618 281.20658 282.02839 282.48851 278.84375 285.71875 C 277.38312 282.52155 275.45089 280.09645 273.03125 278.4375 C 272.05653 277.76381 271.00059 277.25563 269.875 276.90625 C 268.90054 276.71857 267.96238 276.64959 267.0625 276.6875 z M 268.90625 288.65625 C 269.08864 288.65548 269.27705 288.65058 269.46875 288.6875 C 270.02256 288.7942 270.63946 289.31912 271.34375 290.25 C 272.52801 291.67099 272.99808 293.48211 272.75 295.6875 L 265.8125 293.09375 L 266.21875 291 C 266.36647 290.23323 266.75714 289.61161 267.375 289.15625 C 267.83841 288.81477 268.35908 288.65856 268.90625 288.65625 z M 284.46875 293.03125 C 284.60639 293.0191 284.71595 293.03789 284.84375 293.0625 C 286.67554 293.41535 287.65222 294.46398 287.75 296.25 C 287.51019 298.41284 287.25903 300.04517 286.96875 301.09375 L 280.84375 298.78125 C 281.19187 296.28587 281.94322 294.58335 283.09375 293.65625 C 283.59525 293.28897 284.05582 293.0677 284.46875 293.03125 z M 178 293.46875 L 212.375 308.21875 L 210.15625 317.5 L 197.4375 311.8125 L 206.9375 325.9375 L 200.125 328.96875 L 189.25 314.40625 L 173.28125 319.75 L 174.90625 310.46875 L 186.34375 307.1875 L 176.375 302.75 L 178 293.46875 z M 251.71875 315.8125 L 249.5 327.6875 C 252.40624 329.57271 264.77697 339.41598 286.625 357.1875 L 288.78125 345.28125 L 282.28125 340.1875 L 284.40625 330.1875 L 291.21875 330.96875 L 292.84375 320.6875 L 251.71875 315.8125 z M 171.96875 326.59375 C 177.09216 328.5587 189.147 332.89979 208.03125 339.59375 L 205.03125 355.9375 L 197.375 353.5 L 198.59375 345.46875 L 191.9375 343.15625 L 190.6875 351.03125 L 183.59375 348.4375 L 184.90625 340.34375 L 178.25 338.1875 L 176.90625 346 L 169.03125 342.84375 L 171.96875 326.59375 z M 266.0625 328.03125 L 276.875 329.3125 L 275.5 334.375 L 266.0625 328.03125 z M 246.15625 349.875 L 244.71875 359.28125 L 283.625 372.75 L 285.375 363.6875 L 246.15625 349.875 z M 166.5 351.90625 L 202.15625 365.375 L 200.46875 375.40625 L 173.71875 365.46875 L 172.3125 373.6875 L 163.46875 370.09375 L 166.5 351.90625 z M 249.5625 371.71875 C 244.42442 371.77908 241.3491 374.53133 240.34375 379.9375 C 239.60721 382.84409 238.72836 387.68878 237.6875 394.46875 L 276.03125 410.46875 L 278.28125 399.5 L 265.78125 394.5625 L 265.84375 391.0625 L 280.53125 389.78125 L 282.59375 378.78125 L 265.0625 382.78125 C 263.32513 378.9564 260.84427 376.02785 257.65625 374 C 256.35713 373.17547 254.97774 372.54822 253.46875 372.125 C 252.06296 371.85423 250.74821 371.70483 249.5625 371.71875 z M 162.78125 373 C 182.92326 389.35056 194.31106 398.44091 197.03125 400.1875 L 195 411.15625 L 157.03125 406.65625 L 158.5625 397.1875 L 164.84375 397.90625 L 166.8125 388.6875 L 160.8125 383.96875 L 162.78125 373 z M 251.34375 383.21875 C 251.54068 383.22492 251.75043 383.2392 251.96875 383.28125 C 255.59446 384.64234 257.6047 387.4218 258 391.5625 L 248.75 387.90625 C 248.74053 386.57905 248.75665 385.84657 248.78125 385.71875 C 249.11152 384.00413 249.96524 383.17553 251.34375 383.21875 z M 173.03125 394.03125 L 171.78125 398.6875 L 181.75 399.875 L 173.03125 394.03125 z M 155.9375 408.5625 C 176.07951 424.91306 187.46731 434.00341 190.1875 435.75 L 188.15625 446.71875 L 150.1875 442.25 L 151.71875 432.75 L 158 433.46875 L 159.9375 424.25 L 153.9375 419.53125 L 155.9375 408.5625 z M 233.40625 410.90625 L 231.15625 422.78125 C 234.06249 424.66646 246.46447 434.50973 268.3125 452.28125 L 270.46875 440.375 L 263.96875 435.28125 L 266.09375 425.28125 L 272.875 426.0625 L 274.53125 415.78125 L 233.40625 410.90625 z M 247.75 423.125 L 258.5625 424.4375 L 257.1875 429.46875 L 247.75 423.125 z M 166.1875 429.59375 L 164.9375 434.25 L 174.90625 435.4375 L 166.1875 429.59375 z M 228.34375 438.5625 L 226.53125 449.34375 L 247.96875 467 L 224.125 462.875 L 222.28125 473.375 L 262.71875 479.96875 L 264.875 466.9375 L 228.34375 438.5625 z M 148.8125 447.125 L 184.1875 461.90625 C 183.23115 468.14091 182.35891 472.62373 181.71875 475.3125 C 180.53798 481.44281 176.52159 483.82837 169.625 482.5 C 168.23301 482.10962 166.95597 481.50259 165.75 480.78125 C 162.81674 478.87136 160.52809 476.17274 158.9375 472.6875 L 142.75 476.34375 L 144.65625 466.21875 L 158.21875 465.03125 L 158.28125 461.8125 L 146.75 457.25 L 148.8125 447.125 z M 165.4375 464.59375 C 165.80595 468.39377 167.63577 470.92818 171 472.1875 C 172.59153 472.49405 173.59689 471.70586 173.9375 469.9375 C 173.96021 469.81962 173.97745 469.16182 173.96875 467.9375 L 165.4375 464.59375 z "
         transform="matrix(1.6179203,-0.08132198,0.08132198,1.6179203,-88.773798,-39.489482)"
         id="rect3010" />
    </g>
  </g>
</svg>
