<?xml version="1.0" encoding="UTF-8" standalone="no"?>
<!-- Created with Inkscape (http://www.inkscape.org/) -->

<svg
   xmlns:dc="http://purl.org/dc/elements/1.1/"
   xmlns:cc="http://creativecommons.org/ns#"
   xmlns:rdf="http://www.w3.org/1999/02/22-rdf-syntax-ns#"
   xmlns:svg="http://www.w3.org/2000/svg"
   xmlns="http://www.w3.org/2000/svg"
   xmlns:sodipodi="http://sodipodi.sourceforge.net/DTD/sodipodi-0.dtd"
   xmlns:inkscape="http://www.inkscape.org/namespaces/inkscape"
   id="svg2"
   version="1.1"
   inkscape:version="0.48.3.1 r9886"
   width="362.4875"
   height="105.625"
   xml:space="preserve"
   sodipodi:docname="leeuwsteunVO_G.eps"><metadata
     id="metadata8"><rdf:RDF><cc:Work
         rdf:about=""><dc:format>image/svg+xml</dc:format><dc:type
           rdf:resource="http://purl.org/dc/dcmitype/StillImage" /><dc:title></dc:title></cc:Work></rdf:RDF></metadata><defs
     id="defs6" /><sodipodi:namedview
     pagecolor="#ffffff"
     bordercolor="#666666"
     borderopacity="1"
     objecttolerance="10"
     gridtolerance="10"
     guidetolerance="10"
     inkscape:pageopacity="0"
     inkscape:pageshadow="2"
     inkscape:window-width="1375"
     inkscape:window-height="876"
     id="namedview4"
     showgrid="false"
     inkscape:zoom="1.1007276"
     inkscape:cx="181.24374"
     inkscape:cy="52.8125"
     inkscape:window-x="65"
     inkscape:window-y="24"
     inkscape:window-maximized="1"
     inkscape:current-layer="g12" /><g
     id="g10"
     inkscape:groupmode="layer"
     inkscape:label="ink_ext_XXXXXX"
     transform="matrix(1.25,0,0,-1.25,0,105.625)"><g
       id="g12"
       transform="scale(0.1,0.1)"><path
         d="m 1945.16,122.961 0,23.992 c -17.7,0 -30,-7.234 -30,-26.094 4.95,3.145 30,2.102 30,2.102"
         style="fill:#7b7979;fill-opacity:1;fill-rule:nonzero;stroke:none"
         id="path14" /><path
         d="m 2007.23,58.293 -18.08,18.0937 c -12.99,-12.9805 -15.26,-27.0898 -1.68,-40.8008 1.29,5.7305 19.76,22.7071 19.76,22.7071"
         style="fill:#7b7979;fill-opacity:1;fill-rule:nonzero;stroke:none"
         id="path16" /><path
         d="m 2030.01,35.3711 -15.5,15.5078 c -12.55,-12.5664 -17.83,-24.5234 -4.23,-38.1914 1.26,5.7109 19.73,22.6836 19.73,22.6836"
         style="fill:#7b7979;fill-opacity:1;fill-rule:nonzero;stroke:none"
         id="path18" /><path
         d="m 1951.33,89.5312 0,24.0038 58.96,0 -24.2,-24.1717 -34.76,0.1679"
         style="fill:#7b7979;fill-opacity:1;fill-rule:nonzero;stroke:none"
         id="path20" /><path
         d="m 1944.87,89.5312 0,24.0038 c -17.71,0 -30.01,-7.246 -30.01,-26.0858 4.94,3.1367 30.01,2.082 30.01,2.082"
         style="fill:#7b7979;fill-opacity:1;fill-rule:nonzero;stroke:none"
         id="path22" /><path
         d="m 2376.84,75.832 0,23.9922 63.51,0 -24.17,-24.1719 -39.34,0.1797"
         style="fill:#7b7979;fill-opacity:1;fill-rule:nonzero;stroke:none"
         id="path24" /><path
         d="m 2370.39,75.832 0,23.9922 c -17.73,0 -30.03,-7.2344 -30.03,-26.0937 4.95,3.1445 30.03,2.1015 30.03,2.1015"
         style="fill:#7b7979;fill-opacity:1;fill-rule:nonzero;stroke:none"
         id="path26" /><path
         d="m 2370.59,107.5 0,23.996 c -17.72,0 -30.02,-7.246 -30.02,-26.105 4.95,3.144 30.02,2.109 30.02,2.109"
         style="fill:#7b7979;fill-opacity:1;fill-rule:nonzero;stroke:none"
         id="path28" /><path
         d="m 2061.11,66.5625 -26.2,-26.2109 -15.34,15.3632 39.54,39.5313 c 10.8,-10.8047 12.42,-18.2813 2,-28.6836"
         style="fill:#7b7979;fill-opacity:1;fill-rule:nonzero;stroke:none"
         id="path30" /><path
         d="m 2460.36,22.6953 -15.52,15.5078 C 2432.32,25.6367 2427.04,13.6719 2440.64,0 c 1.26,5.72266 19.72,22.6953 19.72,22.6953"
         style="fill:#7b7979;fill-opacity:1;fill-rule:nonzero;stroke:none"
         id="path32" /><path
         d="m 2436.29,46.7773 -15.51,15.5196 c -12.56,-12.6016 -17.83,-24.5313 -4.25,-38.2266 1.29,5.7149 19.76,22.707 19.76,22.707"
         style="fill:#7b7979;fill-opacity:1;fill-rule:nonzero;stroke:none"
         id="path34" /><path
         d="m 2491.46,53.8789 -26.19,-26.2031 -15.35,15.3633 39.54,39.5195 c 10.81,-10.7891 12.43,-18.25 2,-28.6797"
         style="fill:#7b7979;fill-opacity:1;fill-rule:nonzero;stroke:none"
         id="path36" /><path
         d="m 1907.45,757.871 c 0,0 0,-17.101 0,-28.125 -9.15,0 -20.63,0 -20.63,0 l 0,-20.558 41.2,0 0,48.683 -20.57,0"
         style="fill:#7b7979;fill-opacity:1;fill-rule:nonzero;stroke:none"
         id="path38" /><path
         d="m 1852.41,706.98 c 0,16.575 9.99,22.832 27.69,22.832 l 0,-20.64 c -6.81,0 -23.28,0.359 -27.69,-2.192"
         style="fill:#7b7979;fill-opacity:1;fill-rule:nonzero;stroke:none"
         id="path40" /><path
         d="m 1905.42,792.141 c 16.6,0 22.85,-10 22.85,-27.676 l -20.64,0 c 0,6.777 0.36,23.269 -2.21,27.676"
         style="fill:#7b7979;fill-opacity:1;fill-rule:nonzero;stroke:none"
         id="path42" /><path
         d="m 1852.18,671.809 c 0,16.601 6.29,24.961 27.92,24.961 l -0.04,-23.047 c -6.79,0 -23.48,0.644 -27.88,-1.914"
         style="fill:#7b7979;fill-opacity:1;fill-rule:nonzero;stroke:none"
         id="path44" /><path
         d="m 1938.61,792.656 c 16.59,0 24.96,-6.301 24.96,-27.922 l -23.05,0.012 c 0,6.809 0.64,23.508 -1.91,27.91"
         style="fill:#7b7979;fill-opacity:1;fill-rule:nonzero;stroke:none"
         id="path46" /><path
         d="m 1855.28,466.387 c 0,0 12.08,-12.071 19.88,-19.871 -6.46,-6.465 -14.56,-14.563 -14.56,-14.563 l 14.53,-14.558 29.14,29.121 -34.43,34.429 -14.56,-14.558"
         style="fill:#7b7979;fill-opacity:1;fill-rule:nonzero;stroke:none"
         id="path48" /><path
         d="m 1852.34,391.484 c -11.73,11.731 -9.08,23.235 3.42,35.723 l 14.6,-14.59 c -4.8,-4.812 -16.69,-16.199 -18.02,-21.133"
         style="fill:#7b7979;fill-opacity:1;fill-rule:nonzero;stroke:none"
         id="path50" /><path
         d="m 1829.63,489.199 c 11.73,11.731 23.21,9.082 35.71,-3.418 l -14.61,-14.597 c -4.78,4.8 -16.17,16.714 -21.1,18.015"
         style="fill:#7b7979;fill-opacity:1;fill-rule:nonzero;stroke:none"
         id="path52" /><path
         d="m 1877.03,366.445 c -11.73,11.746 -13.18,22.11 2.11,37.383 l 16.28,-16.289 c -4.81,-4.805 -17.07,-16.152 -18.39,-21.094"
         style="fill:#7b7979;fill-opacity:1;fill-rule:nonzero;stroke:none"
         id="path54" /><path
         d="m 1852.7,513.039 c 11.73,11.727 22.1,13.16 37.39,-2.121 l -16.3,-16.277 c -4.8,4.8 -16.13,17.058 -21.09,18.398"
         style="fill:#7b7979;fill-opacity:1;fill-rule:nonzero;stroke:none"
         id="path56" /><path
         d="m 2211.45,754.543 9.06,-7.434 c 0,0 -114.8,-40.379 -161.56,29.258 18.55,11.953 39.98,24.727 63.87,-4.941 23.92,-29.668 32.56,-25.965 88.63,-16.883"
         style="fill:#7b7979;fill-opacity:1;fill-rule:nonzero;stroke:none"
         id="path58" /><path
         d="m 2384.26,726.094 63.18,-53.156 c 0,0 0.97,-8.356 -4.29,-13.59 -5.25,-5.246 -14.65,-5.735 -14.65,-5.735 0,0 -31.68,26.817 -34.93,29.578 -18.84,15.957 -13.84,34.809 -9.31,42.903"
         style="fill:#7b7979;fill-opacity:1;fill-rule:nonzero;stroke:none"
         id="path60" /><path
         d="m 2247.12,711.25 c 34.94,-39.793 -12.18,-65.312 -4.87,-107.52 l 12.5,13.536 c 2.07,39.609 33.79,53.093 -1.65,100.519 5.98,5.153 7.91,17.246 6.33,20.899 19.81,-3.653 39.61,-26.039 39.61,-47.414 0,-21.356 -5.22,-27.09 -12.51,-44.297 8.33,5.215 22.92,19.277 22.92,42.734 0,50.539 -41.67,59.914 -59.39,59.914 7.28,-44.816 -54.21,-48.449 -71.39,-48.449 -1.58,7.812 1.04,21.875 3.65,30.223 0,0 5.22,-6.786 7.8,-10.426 30.36,7.156 40.34,10.379 40.34,32.019 0,18.418 -1.67,18.547 -13.24,19.551 -7.29,0.645 -22.91,1.055 -31.26,0 0,0 -3.13,-9.363 -7.82,-18.211 -2.07,5.192 -6.25,25.516 -7.3,48.445 -1.02,22.93 8.35,22.415 15.64,23.977 7.31,1.57 33.86,4.695 52.11,7.285 0,0 6.25,8.36 7.29,10.957 38.57,0 89.64,-4.687 106.3,-7.824 -3.13,-10.418 -5.2,-14.07 -15.11,-25.008 0.53,-10.949 6.25,-13.019 6.25,-97.441 0,-84.426 -85.98,-107.864 -110.98,-169.348 -52.63,102.637 28.67,107.336 -9.39,153.184 0,0 19.01,6.445 24.17,12.695 m -0.19,110.273 0,-16.648 22.91,16.141 -22.91,0.507"
         style="fill:#7b7979;fill-opacity:1;fill-rule:nonzero;stroke:none"
         id="path62" /><path
         d="m 2096.82,530.137 -167.16,166.457 -0.14,-0.149 0,0.098 -42.73,0 0,-22.852 30.23,0 145.34,-144.714 -52.07,-52.09 -85.47,0 -29.22,29.226 -17.76,-17.761 37.35,-37.368 0.04,0.051 0,-0.129 104.24,0.039 77.35,79.192 m 9.15,-45.203 c 9.6,-9.602 51.33,-51.329 80.87,-80.872 -24.76,-8.71 -50.22,-22.707 -74.46,-36.933 -44.79,-26.25 -45.08,-59.688 -45.08,-76.649 l 0,-84.75 -57.8,-58.777 -57.87,0 0,-23.992 68.19,0.242 70.51,71.711 28.99,0 0,51.258 c 0,28.137 1.73,31.394 22.36,51.992 l 93.19,93.524 c 0.09,0.07 0,0 0,0 l -128.9,128.781 -80.91,-80.899 -109.51,0 -0.04,0.051 -0.03,-0.051 -0.07,0 0,-0.058 -31.22,-31.242 16.14,-16.149 21.48,21.473 112.46,0.031 71.7,71.309 z m -167.03,219.668 194.49,-193.75 17.75,17.8 -0.13,0.149 c 29.13,29.16 19.92,33.261 12.7,62.683 -7.05,28.801 6.25,53.235 11.96,58.391 l 11.11,0.809 c -28.49,-47.793 -3.25,-64.903 -4.6,-92.598 l 23.37,23.34 c -13.86,67.902 30.67,79.863 12.48,104.035 -4.36,-4.902 -14.39,-4.629 -57.57,-8.965 -56.95,-5.734 -65.2,-38.574 -65.2,-51.058 0,-11.141 1.22,-20.516 2.45,-25.797 l 32.05,-32.063 c -16.28,72.793 14.14,77.402 23.9,79.856 -17.12,-17.922 -20.37,-33.684 -17.12,-53.77 6.03,-37.062 5.74,-35.832 -5.15,-45.332 l -167.39,166.734 0,42.375 -25.13,0 0,-52.832 0.07,0 -0.04,-0.007 z m 508.53,-436.426 -88.81,0.086 -114.72,114.211 -93.39,-93.176 c -11.68,-11.25 -18.75,-18.047 -18.75,-37.109 0,-10.75 0.17,-45.489 0.3,-70.059 l -37.26,0 -100.74,-100.7618 18.3,-18.2813 c 0,0 86.15,86.1521 93.15,93.1521 l 51.81,0.18 c 0,0.777 -0.43,78.719 -0.43,95.77 0,8.359 0.64,8.964 11.05,18.976 l 75.89,75.723 104.2,-103.657 74.27,-0.105 0,-111.289 -45.53,0 0,-25.137 70.72,0 -0.06,161.477 z m -5.99,36.875 0,0 -98.9,98.926 c 35.16,1.882 76.82,16.609 76.82,51.953 0,37.254 -15.95,44.16 -38.31,57.468 0.52,4.793 4.8,7.969 11.19,10.633 6.37,2.68 46.81,19.16 73.95,29.809 27.14,10.633 22.36,30.332 19.69,40.449 -1.61,-4.809 -12.25,-10.656 -20.76,-13.84 -8.5,-3.203 -83.01,-33.535 -92.58,-37.258 -9.59,-3.718 -11.72,-8.503 -15.43,-18.093 0,0 -6.66,3.464 -9.06,5.859 0,11.699 12.24,18.625 22.43,22.363 10.18,3.711 67.41,27.41 97.84,38.821 21.28,7.988 22.35,27.156 16.5,44.187 -2.13,-5.859 -14.9,-16.492 -23.94,-20.234 -8.15,-3.348 -69.71,-28.739 -96.33,-37.774 -26.61,-9.062 -29.79,-19.695 -34.58,-35.129 -15.97,21.809 9.04,37.258 21.29,41.516 12.23,4.25 44.68,15.957 90.99,34.59 46.3,18.625 45.22,44.172 45.22,63.848 0,0 0,40.441 0,69.179 0,28.731 -21.81,59.071 -53.31,59.071 -35.01,0 -53.63,-26.622 -53.63,-46.305 0,-23.945 15.95,-35.278 15.95,-35.278 l 52.69,-45.593 0,34.043 c -24.42,24.426 -40.99,29.816 -40.99,47.363 0,6.914 7.99,19.699 23.43,19.699 22.3,0 29.27,-21.828 29.27,-28.742 0,-9.043 -0.56,-58.008 -0.56,-80.891 0,-22.879 -17.54,-28.726 -26.16,-32.449 -8.6,-3.73 -77.59,-31.406 -89.81,-36.726 -12.25,-5.313 -46.83,-12.227 -46.83,-48.418 0,-60.137 96.83,-52.688 93.1,-100.039 -2.35,-29.914 -42.62,-32.278 -68.87,-33.286 l -61.36,61.34 c -22.89,21.825 -43.47,60.352 -51.05,83.875 -7.28,-7.261 -67.45,-67.508 -67.45,-67.508 l 222.17,-222.375 95.01,-0.191 0,-178.266 -33.73,-33.941 16.22,-16.0976 42.65,42.9336 0,210.691 -42.77,-0.183"
         style="fill:#7b7979;fill-opacity:1;fill-rule:nonzero;stroke:none"
         id="path64" /><path
         d="m 74.4102,822.367 c -1.9141,1.914 -1.9141,7.656 0.7187,8.375 8.1328,-0.476 18.4219,-0.719 30.1441,-0.719 7.895,0 14.836,0 23.442,0.719 0,-14.832 8.375,-29.43 18.902,-51.918 l 15.789,-33.734 c 2.156,-4.785 9.574,-18.418 12.922,-24.402 3.11,5.742 6.938,13.16 13.399,27.273 l 12.203,26.316 c 11.484,24.645 16.746,35.891 22.011,56.465 11,-0.957 18.418,-0.719 25.594,-0.719 7.899,0 18.903,0.243 27.516,0.719 2.633,-1.433 2.633,-5.98 0.719,-8.375 l -6.938,-1.195 c -9.812,-1.676 -14.598,-4.547 -14.598,-17.227 0,-49.285 0.481,-75.121 1.914,-105.269 0.481,-11.004 1.438,-16.746 10.77,-17.946 l 7.652,-0.957 c 1.914,-1.914 1.914,-7.414 -0.476,-8.371 -11.004,0.477 -21.293,0.719 -33.02,0.719 -10.765,0 -23.918,-0.242 -35.402,-0.719 -2.871,1.196 -3.11,6.7 -0.719,8.371 l 7.18,0.957 c 11.004,1.438 11.004,4.309 11.004,18.903 l -0.481,62.203 0,27.273 -0.476,0 c -17.703,-38.277 -36.844,-78.23 -52.637,-118.664 -1.195,-0.957 -2.871,-1.675 -4.785,-1.675 -2.153,0 -4.785,0.48 -6.223,1.437 -9.328,29.668 -37.797,87.801 -51.195,118.902 l -0.477,0 c -0.957,-15.55 -1.437,-24.879 -1.675,-37.32 -0.239,-15.547 -0.477,-39.477 -0.477,-53.828 0,-11.965 1.434,-15.316 11.004,-16.75 l 9.328,-1.438 c 1.914,-1.671 1.434,-7.175 -0.481,-8.371 -8.847,0.477 -19.136,0.719 -28.2261,0.719 -7.6562,0 -17.4687,-0.242 -27.0351,-0.719 -3.1133,0.957 -3.1133,7.176 -0.957,8.371 l 4.3046,0.719 c 12.2032,2.153 12.9219,3.59 14.3555,18.426 1.1953,11.723 2.3945,32.539 3.8281,55.262 0.9571,16.031 1.6758,35.41 1.6758,48.332 0,13.636 -5.2656,17.222 -14.8359,18.898 l -5.2617,0.957"
         style="fill:#7b7979;fill-opacity:1;fill-rule:nonzero;stroke:none"
         id="path66" /><path
         d="m 326.578,728.824 c -5.504,0 -5.98,-0.48 -5.98,-4.308 0,-17.942 11.484,-35.411 33.726,-35.411 6.703,0 15.793,1.438 22.254,12.442 2.633,0.48 6.219,-1.434 6.219,-5.5 -9.809,-20.34 -27.516,-27.277 -41.863,-27.277 -32.301,0 -49.766,22.73 -49.766,48.808 0,30.141 21.773,53.59 51.676,53.59 24.883,0 38.281,-16.031 38.281,-34.449 0,-4.547 -1.199,-7.895 -8.613,-7.895 l -45.934,0 z m 15.785,10.524 c 3.352,0 7.18,0.476 9.809,2.152 1.195,0.719 1.676,3.109 1.676,5.504 0,7.894 -4.547,13.156 -12.676,13.156 -10.047,0 -18.66,-9.57 -18.66,-17.226 0,-3.348 3.347,-3.586 11.004,-3.586 l 8.847,0"
         style="fill:#7b7979;fill-opacity:1;fill-rule:nonzero;stroke:none"
         id="path68" /><path
         d="m 436.871,754.898 c -3.109,0 -3.351,-0.238 -3.351,-5.503 l 0,-35.883 c 0,-13.399 0,-28.235 16.746,-28.235 3.347,0 7.175,1.676 10.046,3.59 2.391,-0.719 3.829,-3.347 3.348,-6.222 -6.695,-7.176 -19.617,-13.875 -34.445,-13.875 -19.86,0 -26.797,11.484 -26.797,27.277 l 0,53.348 c 0,5.023 -0.238,5.503 -4.547,5.503 l -7.418,0 c -2.633,0.957 -3.348,5.743 -1.433,7.414 7.418,2.633 14.117,6.942 19.859,10.77 4.305,3.109 10.285,8.133 17.703,18.66 1.676,0.957 5.98,0.719 7.18,-1.195 l 0,-17.945 c 0,-4.543 0.238,-4.786 4.543,-4.786 l 21.289,0 c 1.195,-0.957 1.914,-2.39 1.914,-4.546 0,-2.629 -0.719,-6.938 -3.11,-8.372 l -21.527,0"
         style="fill:#7b7979;fill-opacity:1;fill-rule:nonzero;stroke:none"
         id="path70" /><path
         d="m 528.262,676.188 c -2.633,4.785 -4.309,16.269 -3.828,27.035 1.433,2.394 6.699,2.632 8.136,0.48 3.11,-9.812 12.2,-23.93 24.403,-23.93 7.179,0 12.441,4.309 12.441,12.446 0,8.851 -7.656,13.875 -15.793,17.941 -14.351,7.18 -24.641,15.793 -24.641,30.145 0,20.812 17.465,30.863 38.043,30.863 12.196,0 22.961,-3.109 25.594,-5.023 2.395,-5.266 3.59,-14.836 3.59,-23.926 -0.957,-2.633 -6.937,-2.633 -8.375,-0.957 -4.785,13.875 -10.762,18.898 -18.656,18.898 -6.942,0 -11.965,-4.066 -11.965,-10.527 0,-5.5 4.547,-10.047 15.312,-15.305 16.266,-7.898 26.317,-17.945 26.317,-33.496 -0.242,-21.297 -18.426,-32.062 -40.91,-32.062 -13.637,0 -23.207,2.394 -29.668,7.418"
         style="fill:#7b7979;fill-opacity:1;fill-rule:nonzero;stroke:none"
         id="path72" /><path
         d="m 657.211,754.898 c -3.109,0 -3.348,-0.238 -3.348,-5.503 l 0,-35.883 c 0,-13.399 0,-28.235 16.742,-28.235 3.348,0 7.176,1.676 10.047,3.59 2.395,-0.719 3.832,-3.347 3.352,-6.222 -6.699,-7.176 -19.617,-13.875 -34.449,-13.875 -19.86,0 -26.797,11.484 -26.797,27.277 l 0,53.348 c 0,5.023 -0.238,5.503 -4.543,5.503 l -7.418,0 c -2.633,0.957 -3.352,5.743 -1.438,7.414 7.418,2.633 14.118,6.942 19.86,10.77 4.308,3.109 10.289,8.133 17.707,18.66 1.672,0.957 5.98,0.719 7.176,-1.195 l 0,-17.945 c 0,-4.543 0.238,-4.786 4.546,-4.786 l 21.29,0 c 1.195,-0.957 1.914,-2.39 1.914,-4.546 0,-2.629 -0.719,-6.938 -3.114,-8.372 l -21.527,0"
         style="fill:#7b7979;fill-opacity:1;fill-rule:nonzero;stroke:none"
         id="path74" /><path
         d="m 724.684,728.824 c -5.504,0 -5.985,-0.48 -5.985,-4.308 0,-17.942 11.489,-35.411 33.735,-35.411 6.699,0 15.789,1.438 22.25,12.442 2.632,0.48 6.218,-1.434 6.218,-5.5 -9.808,-20.34 -27.511,-27.277 -41.863,-27.277 -32.301,0 -49.766,22.73 -49.766,48.808 0,30.141 21.774,53.59 51.672,53.59 24.883,0 38.285,-16.031 38.285,-34.449 0,-4.547 -1.199,-7.895 -8.617,-7.895 l -45.929,0 z m 15.785,10.524 c 3.351,0 7.179,0.476 9.808,2.152 1.2,0.719 1.676,3.109 1.676,5.504 0,7.894 -4.547,13.156 -12.676,13.156 -10.047,0 -18.664,-9.57 -18.664,-17.226 0,-3.348 3.352,-3.586 11.008,-3.586 l 8.848,0"
         style="fill:#7b7979;fill-opacity:1;fill-rule:nonzero;stroke:none"
         id="path76" /><path
         d="m 894.785,703.703 c 0,-14.117 0.719,-20.34 6.461,-20.34 3.109,0 6.699,0.957 9.57,1.914 2.153,-0.476 2.391,-9.089 -0.718,-10.285 -23.446,-0.957 -43.543,-8.613 -44.262,-8.613 -1.676,0.238 -2.633,1.433 -2.871,2.871 0.476,2.871 0.719,6.699 0.719,8.609 0,1.438 -1.2,2.395 -2.633,2.395 -9.332,-5.981 -17.699,-11.484 -32.535,-11.484 -19.86,0 -27.993,10.289 -27.993,30.625 l 0,40.667 c 0,12.684 -1.437,13.879 -7.179,15.555 l -3.11,0.957 c -1.675,2.153 -1.433,6.696 0.957,8.371 7.895,0.243 16.27,0.957 23.207,2.157 7.18,1.195 14.118,4.066 15.075,4.066 1.433,0 2.632,-1.676 2.871,-2.871 -0.481,-5.985 -0.719,-12.442 -0.719,-21.055 l 0,-39.472 c 0,-11.485 1.676,-21.536 16.984,-21.536 6.7,0 10.528,3.114 12.442,4.547 1.676,1.196 2.633,4.785 2.633,7.18 l 0,45.215 c 0,9.57 -1.676,11.722 -10.289,12.918 l -3.352,0.48 c -1.914,1.672 -1.676,7.414 1.195,8.371 8.617,0.481 17.231,1.438 24.883,2.395 8.375,1.195 15.555,3.828 16.988,3.828 0.957,0 2.157,-1.195 2.395,-2.871 -0.238,-4.309 -0.719,-12.203 -0.719,-21.055 l 0,-43.539"
         style="fill:#7b7979;fill-opacity:1;fill-rule:nonzero;stroke:none"
         id="path78" /><path
         d="m 932.348,735.996 c 0,9.57 0,12.442 -4.543,15.313 l -3.352,2.152 c -1.676,1.437 -1.676,5.742 0,7.18 11.246,3.109 28.473,9.57 35.41,13.875 1.914,0 3.352,-0.715 4.309,-2.153 0,-3.347 -0.719,-9.093 -0.727,-10.765 0,-1.438 0.481,-1.914 1.203,-1.914 0.711,0 3.106,1.195 4.547,1.914 5.258,3.109 16.504,9.57 27.508,9.57 19.857,0 29.907,-13.637 29.907,-30.148 l 0,-41.145 c 0,-16.75 0.96,-18.664 9.57,-19.621 l 3.83,-0.481 c 1.92,-1.433 1.92,-6.937 -0.24,-8.371 -7.41,0.477 -17.47,0.719 -28.95,0.719 -9.57,0 -18.902,-0.242 -25.84,-0.719 -2.152,1.434 -2.152,6.938 -0.238,8.371 l 4.305,0.719 c 5.504,0.957 6.461,2.633 6.461,15.793 l 0,40.434 c 0,9.328 -4.785,16.984 -16.746,16.984 -6.7,0 -11.481,-3.113 -13.395,-5.742 -1.437,-1.676 -1.914,-4.547 -1.914,-8.856 l 0,-42.82 c 0,-13.16 0.957,-15.312 6.938,-16.031 l 3.824,-0.481 c 1.914,-1.433 1.914,-6.937 -0.238,-8.371 -7.418,0.477 -15.071,0.719 -26.555,0.719 -10.051,0 -19.86,-0.242 -28.231,-0.719 -2.156,1.434 -2.156,6.938 -0.242,8.371 l 3.828,0.481 c 8.614,0.957 9.571,2.871 9.571,19.621 l 0,36.121"
         style="fill:#7b7979;fill-opacity:1;fill-rule:nonzero;stroke:none"
         id="path80" /><path
         d="m 1100.05,760.16 c -2.15,1.676 -2.39,7.418 0.72,8.375 8.85,-0.476 16.99,-0.719 29.67,-0.719 8.85,0 17.7,0.481 26.56,0.719 2.15,-1.195 1.91,-7.18 0.48,-8.375 l -3.83,-0.957 c -2.87,-0.719 -4.07,-0.957 -4.07,-2.391 0,-1.437 0.96,-4.785 2.15,-8.374 4.79,-13.153 10.05,-25.594 15.07,-37.083 5.27,11.965 11.25,24.641 16.27,39.235 0.96,2.394 1.44,4.547 1.44,5.984 0,1.196 -1.68,1.91 -5.74,2.867 l -3.36,0.719 c -2.15,1.438 -2.15,7.18 0.24,8.375 7.66,-0.476 12.69,-0.719 19.62,-0.719 7.66,0 13.16,0.481 18.43,0.719 2.63,-1.195 2.15,-6.937 0.48,-8.375 l -4.07,-0.719 c -7.18,-1.195 -9.09,-4.066 -13.88,-13.156 -12.44,-24.64 -23.21,-50.238 -34.21,-75.84 -1.2,-0.957 -3.11,-1.675 -5.5,-1.675 -2.16,0 -4.31,0.718 -5.74,1.675 -12.44,30.145 -17.47,41.629 -32.54,73.446 -5.74,11.726 -7.18,13.64 -13.16,15.074 l -5.03,1.195"
         style="fill:#7b7979;fill-opacity:1;fill-rule:nonzero;stroke:none"
         id="path82" /><path
         d="m 1299.35,704.898 c -0.96,-16.269 5.98,-20.578 10.76,-20.578 2.87,0 5.27,0.719 9.09,2.871 2.16,-0.476 3.59,-3.347 2.87,-5.503 -2.87,-3.829 -14.11,-12.918 -27.75,-12.918 -8.37,0 -13.64,2.871 -20.1,8.375 -1.67,1.433 -2.63,1.914 -3.82,1.914 -1.2,0 -2.63,-0.957 -5.02,-2.633 -4.31,-3.11 -11.49,-7.656 -20.34,-7.656 -13.88,0 -26.8,8.375 -26.8,25.121 0,12.203 7.42,19.621 24.88,24.882 9.1,2.872 15.79,4.786 22.49,6.7 4.31,1.199 5.5,2.871 5.75,4.785 0.23,2.633 0.48,5.262 0.48,8.133 0,9.089 -3.6,20.574 -13.88,20.574 -5.74,0 -10.77,-3.348 -12.44,-13.637 -0.48,-3.828 -1.91,-5.98 -4.07,-7.656 -3.59,-2.633 -12.92,-5.5 -17.23,-5.5 -4.06,0 -5.5,2.633 -5.5,5.976 0,6.223 5.74,13.879 11.48,18.426 8.14,6.457 23.21,14.594 40.2,14.594 20.09,0 31.82,-10.051 30.62,-34.691 l -1.67,-31.579 z m -28.71,6.219 c 0.24,3.828 0,4.547 -1.68,4.309 -10.76,-1.438 -20.09,-5.504 -20.09,-16.75 0,-7.656 5.5,-14.356 12.2,-14.356 7.41,0 8.85,4.309 9.09,11.727 l 0.48,15.07"
         style="fill:#7b7979;fill-opacity:1;fill-rule:nonzero;stroke:none"
         id="path84" /><path
         d="m 1336.67,735.996 c 0,9.57 0,12.442 -4.55,15.313 l -3.35,2.152 c -1.67,1.437 -1.67,5.742 0,7.18 11.25,3.109 28.48,9.57 35.42,13.875 1.92,0 3.34,-0.715 4.29,-2.153 0,-3.347 -0.71,-9.093 -0.71,-10.765 0,-1.438 0.48,-1.914 1.19,-1.914 0.73,0 3.12,1.195 4.56,1.914 5.26,3.109 16.5,9.57 27.51,9.57 19.86,0 29.9,-13.637 29.9,-30.148 l 0,-41.145 c 0,-16.75 0.96,-18.664 9.57,-19.621 l 3.82,-0.481 c 1.92,-1.433 1.92,-6.937 -0.23,-8.371 -7.42,0.477 -17.46,0.719 -28.94,0.719 -9.58,0 -18.91,-0.242 -25.84,-0.719 -2.16,1.434 -2.16,6.938 -0.25,8.371 l 4.31,0.719 c 5.51,0.957 6.47,2.633 6.47,15.793 l 0,40.434 c 0,9.328 -4.79,16.984 -16.77,16.984 -6.68,0 -11.47,-3.113 -13.38,-5.742 -1.44,-1.676 -1.92,-4.547 -1.92,-8.856 l 0,-42.82 c 0,-13.16 0.96,-15.312 6.94,-16.031 l 3.83,-0.481 c 1.91,-1.433 1.91,-6.937 -0.25,-8.371 -7.41,0.477 -15.06,0.719 -26.55,0.719 -10.04,0 -19.85,-0.242 -28.23,-0.719 -2.15,1.434 -2.15,6.938 -0.24,8.371 l 3.83,0.481 c 8.61,0.957 9.57,2.871 9.57,19.621 l 0,36.121"
         style="fill:#7b7979;fill-opacity:1;fill-rule:nonzero;stroke:none"
         id="path86" /><path
         d="m 1617.06,711.355 c 0,-22.488 0.96,-27.992 5.51,-27.992 4.29,0 6.21,0.481 10.28,1.914 2.63,-2.152 2.63,-8.132 0.25,-10.285 -23.7,-1.437 -42.36,-8.613 -43.07,-8.613 -1.68,0 -3.59,1.433 -4.07,3.348 l 0.71,7.418 c -0.23,1.914 -1.19,2.628 -2.15,1.914 -8.38,-5.266 -16.99,-10.289 -25.84,-10.289 -27.27,0 -45.69,21.292 -45.69,47.132 0,33.731 25.36,55.266 56.94,55.266 5.26,0 11,-0.48 13.64,-1.195 1.67,0.715 2.39,2.629 2.39,4.543 l 0,30.625 c 0,9.57 0,12.203 -4.79,15.074 l -4.07,2.39 c -1.91,1.438 -1.67,5.747 0,7.18 10.29,2.395 24.88,8.137 36.61,13.399 1.67,0 3.11,-0.477 4.07,-1.676 -0.48,-9.809 -0.72,-19.86 -0.72,-34.93 l 0,-95.223 z m -31.1,31.821 c 0,3.828 -0.72,6.219 -1.67,8.133 -2.88,5.023 -8.15,8.851 -13.65,8.851 -12.19,0 -24.16,-12.68 -24.16,-37.797 0,-15.789 7.18,-37.562 26.79,-37.562 3.36,0 6.7,0.957 9.82,2.871 2.62,1.676 2.87,4.785 2.87,9.09 l 0,46.414"
         style="fill:#7b7979;fill-opacity:1;fill-rule:nonzero;stroke:none"
         id="path88" /><path
         d="m 1677.12,728.824 c -5.51,0 -5.99,-0.48 -5.99,-4.308 0,-17.942 11.49,-35.411 33.73,-35.411 6.7,0 15.79,1.438 22.26,12.442 2.63,0.48 6.21,-1.434 6.21,-5.5 -9.8,-20.34 -27.51,-27.277 -41.85,-27.277 -32.31,0 -49.77,22.73 -49.77,48.808 0,30.141 21.77,53.59 51.67,53.59 24.88,0 38.28,-16.031 38.28,-34.449 0,-4.547 -1.2,-7.895 -8.61,-7.895 l -45.93,0 z m 15.78,10.524 c 3.35,0 7.18,0.476 9.8,2.152 1.21,0.719 1.69,3.109 1.69,5.504 0,7.894 -4.55,13.156 -12.68,13.156 -10.05,0 -18.66,-9.57 -18.66,-17.226 0,-3.348 3.35,-3.586 11,-3.586 l 8.85,0"
         style="fill:#7b7979;fill-opacity:1;fill-rule:nonzero;stroke:none"
         id="path90" /><path
         d="m 129.668,444.355 c -12.203,-28.949 -18.66,-47.851 -24.164,-61.25 -1.914,-1.195 -4.785,-1.914 -8.3751,-1.914 -2.8711,0 -5.0234,0.719 -6.4609,1.914 -2.6328,6.461 -6.6992,19.141 -10.043,27.278 l -38.7617,97.371 c -9.0899,22.969 -10.2852,23.445 -17.9414,25.359 l -9.5703,2.395 c -1.9141,2.633 -1.1993,6.937 0.957,8.137 12.2031,-0.243 20.0976,-0.719 32.5391,-0.719 11.0039,0 21.2929,0.238 35.8828,0.719 1.914,-1.438 1.6757,-5.985 0.2383,-8.137 l -7.1719,-1.438 c -4.3086,-0.957 -5.9805,-2.39 -5.9805,-4.543 0,-1.914 3.8281,-11.965 9.5664,-26.32 l 21.0552,-53.832 c 3.347,-8.848 5.742,-14.352 7.414,-18.418 1.914,4.066 4.785,10.527 7.656,17.707 l 8.851,22.484 c 5.985,15.075 16.032,41.872 18.903,50.004 1.676,4.547 2.394,7.18 2.394,8.614 0,1.675 -0.718,2.632 -6.461,4.066 l -6.937,1.676 c -1.914,1.914 -1.914,6.937 0.957,8.137 11.246,-0.481 20.336,-0.719 29.43,-0.719 8.132,0 15.312,0.238 22.25,0.719 1.914,-0.957 2.152,-6.704 0.476,-8.137 l -6.219,-1.196 c -6.699,-1.199 -10.05,-3.351 -13.16,-8.374 -5.262,-7.895 -11.722,-20.817 -19.859,-40.196 l -17.465,-41.387"
         style="fill:#7b7979;fill-opacity:1;fill-rule:nonzero;stroke:none"
         id="path92" /><path
         d="m 192.832,518.043 c 0,9.57 0,12.203 -4.785,15.07 l -4.067,2.395 c -1.675,1.433 -1.675,5.742 0,7.18 10.29,2.39 24.645,8.132 36.606,13.398 1.437,0 3.109,-0.481 4.066,-1.676 -0.476,-9.808 -0.714,-19.859 -0.714,-34.933 l 0,-106.704 c 0,-16.75 0.957,-18.664 9.324,-19.621 l 4.066,-0.476 c 1.914,-1.438 1.914,-6.938 -0.238,-8.375 -7.895,0.48 -17.938,0.719 -28.707,0.719 -10.285,0 -20.336,-0.239 -28.711,-0.719 -2.152,1.437 -2.152,6.937 -0.238,8.375 l 4.546,0.476 c 7.895,0.719 8.852,2.871 8.852,19.621 l 0,105.27"
         style="fill:#7b7979;fill-opacity:1;fill-rule:nonzero;stroke:none"
         id="path94" /><path
         d="m 329.918,417.797 c -0.957,-16.27 5.98,-20.574 10.766,-20.574 2.871,0 5.261,0.715 9.093,2.871 2.153,-0.481 3.586,-3.352 2.871,-5.504 -2.871,-3.828 -14.117,-12.918 -27.753,-12.918 -8.375,0 -13.641,2.871 -20.098,8.371 -1.676,1.437 -2.629,1.914 -3.828,1.914 -1.192,0 -2.629,-0.957 -5.024,-2.633 -4.304,-3.109 -11.48,-7.652 -20.336,-7.652 -13.875,0 -26.797,8.371 -26.797,25.121 0,12.203 7.418,19.617 24.883,24.883 9.094,2.871 15.793,4.785 22.493,6.699 4.3,1.195 5.503,2.871 5.738,4.785 0.242,2.633 0.476,5.258 0.476,8.129 0,9.094 -3.582,20.574 -13.871,20.574 -5.742,0 -10.765,-3.347 -12.441,-13.636 -0.481,-3.829 -1.914,-5.981 -4.067,-7.657 -3.589,-2.632 -12.921,-5.496 -17.226,-5.496 -4.07,0 -5.504,2.633 -5.504,5.977 0,6.219 5.742,13.875 11.484,18.422 8.133,6.461 23.207,14.593 40.192,14.593 20.097,0 31.82,-10.046 30.625,-34.691 l -1.676,-31.578 z m -28.707,6.223 c 0.234,3.828 0,4.542 -1.68,4.304 -10.761,-1.433 -20.093,-5.504 -20.093,-16.746 0,-7.656 5.503,-14.355 12.203,-14.355 7.414,0 8.847,4.304 9.093,11.722 l 0.477,15.075"
         style="fill:#7b7979;fill-opacity:1;fill-rule:nonzero;stroke:none"
         id="path96" /><path
         d="m 435.902,417.797 c -0.957,-16.27 5.985,-20.574 10.77,-20.574 2.867,0 5.262,0.715 9.09,2.871 2.152,-0.481 3.59,-3.352 2.871,-5.504 -2.871,-3.828 -14.117,-12.918 -27.754,-12.918 -8.375,0 -13.637,2.871 -20.098,8.371 -1.676,1.437 -2.629,1.914 -3.828,1.914 -1.191,0 -2.629,-0.957 -5.019,-2.633 -4.305,-3.109 -11.485,-7.652 -20.336,-7.652 -13.879,0 -26.797,8.371 -26.797,25.121 0,12.203 7.418,19.617 24.883,24.883 9.089,2.871 15.789,4.785 22.488,6.699 4.305,1.195 5.504,2.871 5.738,4.785 0.242,2.633 0.481,5.258 0.481,8.129 0,9.094 -3.586,20.574 -13.875,20.574 -5.743,0 -10.766,-3.347 -12.442,-13.636 -0.476,-3.829 -1.914,-5.981 -4.066,-7.657 -3.59,-2.632 -12.918,-5.496 -17.227,-5.496 -4.066,0 -5.504,2.633 -5.504,5.977 0,6.219 5.743,13.875 11.485,18.422 8.136,6.461 23.211,14.593 40.191,14.593 20.098,0 31.82,-10.046 30.625,-34.691 l -1.676,-31.578 z m -28.707,6.223 c 0.239,3.828 0,4.542 -1.675,4.304 -10.762,-1.433 -20.094,-5.504 -20.094,-16.746 0,-7.656 5.504,-14.355 12.203,-14.355 7.41,0 8.848,4.304 9.09,11.722 l 0.476,15.075"
         style="fill:#7b7979;fill-opacity:1;fill-rule:nonzero;stroke:none"
         id="path98" /><path
         d="m 473.227,448.895 c 0,9.574 0,12.445 -4.543,15.316 l -3.352,2.152 c -1.676,1.434 -1.676,5.742 0,7.176 11.008,3.109 27.992,9.57 35.41,13.879 1.914,0 3.352,-0.719 4.309,-2.152 0,-3.352 -0.719,-9.094 -0.727,-10.77 0,-1.434 0.481,-1.914 1.203,-1.914 0.711,0 3.106,1.195 4.547,1.914 5.258,3.109 16.024,9.57 27.508,9.57 8.613,0 16.031,-2.871 21.535,-9.089 2.871,-3.352 4.305,-4.309 5.742,-4.309 0.957,0 3.11,1.676 7.657,4.066 5.261,2.871 14.355,9.332 27.273,9.332 18.902,0 28.949,-13.636 28.949,-30.144 l 0,-41.149 c 0,-16.75 0.957,-18.664 8.852,-19.621 l 3.824,-0.476 c 1.914,-1.438 1.914,-6.938 -0.238,-8.375 -7.414,0.48 -16.508,0.719 -27.992,0.719 -9.567,0 -19.614,-0.239 -26.075,-0.719 -2.152,1.437 -2.152,6.937 -0.238,8.375 l 3.828,0.476 c 5.981,0.719 6.938,2.871 6.938,16.032 l 0,40.671 c 0,9.09 -5.024,16.747 -16.032,16.747 -6.699,0 -11.722,-3.11 -13.398,-5.981 -0.957,-1.437 -1.676,-3.828 -1.676,-7.18 l 0,-44.257 c 0,-13.161 0.957,-15.313 6.461,-16.032 l 3.828,-0.476 c 1.914,-1.438 1.914,-6.938 -0.238,-8.375 -7.418,0.48 -15.074,0.719 -25.84,0.719 -9.57,0 -19.14,-0.239 -25.359,-0.719 -2.156,1.437 -2.156,6.937 -0.242,8.375 l 3.828,0.476 c 5.504,0.719 6.461,2.871 6.461,16.032 l 0,40.671 c 0,9.09 -4.785,16.747 -16.27,16.747 -6.219,0 -11,-3.11 -12.914,-5.743 -1.437,-1.675 -1.914,-4.547 -1.914,-8.851 l 0,-42.824 c 0,-13.161 0.957,-15.313 6.938,-16.032 l 3.824,-0.476 c 1.914,-1.438 1.914,-6.938 -0.239,-8.375 -7.417,0.48 -15.07,0.719 -26.554,0.719 -10.766,0 -20.098,-0.239 -27.274,-0.719 -2.394,1.437 -2.394,6.937 -0.48,8.375 l 3.828,0.476 c 7.895,0.957 8.852,2.871 8.852,19.621 l 0,36.122"
         style="fill:#7b7979;fill-opacity:1;fill-rule:nonzero;stroke:none"
         id="path100" /><path
         d="m 655.535,389.086 c -2.629,4.785 -4.305,16.269 -3.828,27.039 1.438,2.391 6.699,2.629 8.137,0.477 3.109,-9.809 12.203,-23.926 24.402,-23.926 7.18,0 12.445,4.304 12.445,12.441 0,8.852 -7.66,13.879 -15.793,17.945 -14.355,7.176 -24.644,15.79 -24.644,30.141 0,20.817 17.469,30.863 38.043,30.863 12.195,0 22.965,-3.109 25.598,-5.023 2.39,-5.266 3.585,-14.832 3.585,-23.926 -0.957,-2.633 -6.937,-2.633 -8.371,-0.957 -4.789,13.879 -10.761,18.902 -18.66,18.902 -6.937,0 -11.961,-4.066 -11.961,-10.527 0,-5.504 4.543,-10.051 15.313,-15.308 16.265,-7.895 26.312,-17.946 26.312,-33.497 -0.238,-21.292 -18.422,-32.058 -40.91,-32.058 -13.637,0 -23.207,2.39 -29.668,7.414"
         style="fill:#7b7979;fill-opacity:1;fill-rule:nonzero;stroke:none"
         id="path102" /><path
         d="m 774.684,441.723 c -5.504,0 -5.985,-0.477 -5.985,-4.305 0,-17.945 11.489,-35.41 33.735,-35.41 6.699,0 15.789,1.433 22.25,12.441 2.632,0.477 6.218,-1.437 6.218,-5.504 -9.808,-20.336 -27.511,-27.273 -41.863,-27.273 -32.301,0 -49.766,22.726 -49.766,48.808 0,30.141 21.774,53.586 51.672,53.586 24.883,0 38.285,-16.027 38.285,-34.445 0,-4.547 -1.199,-7.898 -8.617,-7.898 l -45.929,0 z m 15.785,10.523 c 3.351,0 7.179,0.481 9.808,2.152 1.2,0.719 1.676,3.114 1.676,5.504 0,7.895 -4.547,13.16 -12.676,13.16 -10.047,0 -18.664,-9.57 -18.664,-17.226 0,-3.352 3.352,-3.59 11.008,-3.59 l 8.848,0"
         style="fill:#7b7979;fill-opacity:1;fill-rule:nonzero;stroke:none"
         id="path104" /><path
         d="m 902.676,430.957 c -0.238,34.211 26.797,53.109 55.023,53.109 28.235,0 53.591,-17.226 53.591,-50.957 0,-34.929 -25.595,-51.437 -55.02,-51.437 -28.473,0 -53.356,16.266 -53.594,49.285 z m 34.453,5.266 c 0,-25.125 7.894,-43.547 21.769,-43.547 13.637,0 18.18,15.551 17.942,37.086 -0.238,23.203 -6.938,43.3 -20.57,43.3 -10.528,0 -19.141,-10.765 -19.141,-36.839"
         style="fill:#7b7979;fill-opacity:1;fill-rule:nonzero;stroke:none"
         id="path106" /><path
         d="m 1013.45,473.062 c -2.16,1.672 -2.4,7.418 0.71,8.376 8.86,-0.481 16.99,-0.719 29.67,-0.719 8.86,0 17.71,0.476 26.56,0.719 2.15,-1.2 1.91,-7.18 0.48,-8.376 l -3.83,-0.957 c -2.87,-0.718 -4.07,-0.957 -4.07,-2.394 0,-1.434 0.96,-4.785 2.16,-8.371 4.78,-13.156 10.05,-25.598 15.07,-37.082 5.26,11.965 11.24,24.637 16.26,39.234 0.96,2.391 1.44,4.547 1.44,5.981 0,1.195 -1.67,1.914 -5.74,2.871 l -3.35,0.718 c -2.15,1.434 -2.15,7.176 0.24,8.376 7.65,-0.481 12.68,-0.719 19.62,-0.719 7.65,0 13.15,0.476 18.42,0.719 2.63,-1.2 2.15,-6.942 0.48,-8.376 l -4.07,-0.718 c -7.18,-1.196 -9.09,-4.067 -13.88,-13.16 -12.44,-24.637 -23.21,-50.239 -34.21,-75.84 -1.2,-0.957 -3.11,-1.672 -5.5,-1.672 -2.16,0 -4.3,0.715 -5.74,1.672 -12.44,30.148 -17.47,41.633 -32.54,73.449 -5.74,11.723 -7.18,13.637 -13.16,15.07 l -5.02,1.199"
         style="fill:#7b7979;fill-opacity:1;fill-rule:nonzero;stroke:none"
         id="path108" /><path
         d="m 1160.1,441.723 c -5.5,0 -5.98,-0.477 -5.98,-4.305 0,-17.945 11.49,-35.41 33.73,-35.41 6.7,0 15.79,1.433 22.25,12.441 2.63,0.477 6.22,-1.437 6.22,-5.504 -9.8,-20.336 -27.51,-27.273 -41.86,-27.273 -32.3,0 -49.77,22.726 -49.77,48.808 0,30.141 21.77,53.586 51.68,53.586 24.88,0 38.28,-16.027 38.28,-34.445 0,-4.547 -1.2,-7.898 -8.61,-7.898 l -45.94,0 z m 15.79,10.523 c 3.35,0 7.18,0.481 9.81,2.152 1.19,0.719 1.67,3.114 1.67,5.504 0,7.895 -4.54,13.16 -12.67,13.16 -10.05,0 -18.66,-9.57 -18.66,-17.226 0,-3.352 3.35,-3.59 11,-3.59 l 8.85,0"
         style="fill:#7b7979;fill-opacity:1;fill-rule:nonzero;stroke:none"
         id="path110" /><path
         d="m 1237.62,448.418 c 0,9.57 0,12.441 -4.55,15.312 l -3.35,2.153 c -1.67,1.437 -1.67,5.742 0,7.179 11.01,3.11 27.51,9.571 34.93,14.356 1.92,0 3.35,-0.719 4.31,-2.152 -0.48,-4.786 -0.96,-8.137 -0.96,-10.289 0,-1.676 0.48,-2.395 2.39,-2.872 6.47,4.067 13.4,11.961 23.45,11.961 6.46,0 13.16,-5.023 13.16,-14.117 0,-11.004 -7.66,-15.551 -15.32,-15.551 -3.34,0 -6.22,1.438 -9.32,4.309 -5.5,4.547 -7.66,4.785 -9.09,4.785 -3.35,0 -4.55,-5.265 -4.55,-14.351 l 0,-36.844 c 0,-16.75 0.96,-18.664 8.85,-19.383 l 7.66,-0.719 c 1.91,-1.433 1.91,-6.937 -0.25,-8.371 -11.48,0.477 -21.04,0.719 -32.29,0.719 -9.81,0 -20.33,-0.242 -28.23,-0.719 -2.16,1.434 -2.16,6.938 -0.24,8.371 l 4.55,0.481 c 7.89,0.719 8.85,2.871 8.85,19.621 l 0,36.121"
         style="fill:#7b7979;fill-opacity:1;fill-rule:nonzero;stroke:none"
         id="path112" /><path
         d="m 1325.42,518.043 c 0,9.57 0,12.203 -4.78,15.07 l -4.07,2.395 c -1.68,1.433 -1.68,5.742 0,7.18 10.05,2.39 23.92,8.132 36.61,13.398 1.43,0 3.1,-0.481 4.05,-1.676 -0.46,-9.808 -0.71,-19.859 -0.71,-34.933 l 0,-44.024 c 0,-2.152 0.48,-2.871 1.68,-2.871 0.24,0 1.44,0.48 3.82,1.914 5.27,3.59 15.55,9.57 27.52,9.57 20.1,0 30.14,-13.636 30.14,-30.144 l 0,-41.149 c 0,-16.75 0.96,-18.664 9.57,-19.621 l 3.82,-0.476 c 1.92,-1.438 1.92,-6.938 -0.23,-8.375 -7.42,0.48 -17.46,0.719 -28.94,0.719 -10.29,0 -20.59,-0.239 -25.84,-0.719 -2.16,1.437 -2.16,6.937 -0.25,8.375 l 4.31,0.719 c 5.51,0.957 6.47,2.628 6.47,15.789 l 0,41.386 c 0,8.375 -5.04,16.032 -16.77,16.032 -6.68,0 -11.47,-3.11 -13.38,-5.743 -1.44,-1.675 -1.92,-4.547 -1.92,-8.851 l 0,-42.824 c 0,-13.161 0.96,-14.832 6.46,-15.789 l 4.31,-0.719 c 1.91,-1.438 1.91,-6.938 -0.25,-8.375 -7.41,0.48 -15.06,0.719 -26.55,0.719 -9.81,0 -19.85,-0.239 -27.99,-0.719 -2.15,1.437 -2.15,6.937 -0.24,8.375 l 4.31,0.476 c 7.89,0.957 8.85,2.871 8.85,19.621 l 0,105.27"
         style="fill:#7b7979;fill-opacity:1;fill-rule:nonzero;stroke:none"
         id="path114" /><path
         d="m 1480.21,441.723 c -5.49,0 -5.98,-0.477 -5.98,-4.305 0,-17.945 11.48,-35.41 33.73,-35.41 6.7,0 15.8,1.433 22.25,12.441 2.63,0.477 6.23,-1.437 6.23,-5.504 -9.81,-20.336 -27.53,-27.273 -41.87,-27.273 -32.29,0 -49.77,22.726 -49.77,48.808 0,30.141 21.77,53.586 51.68,53.586 24.88,0 38.28,-16.027 38.28,-34.445 0,-4.547 -1.19,-7.898 -8.62,-7.898 l -45.93,0 z m 15.8,10.523 c 3.34,0 7.17,0.481 9.8,2.152 1.19,0.719 1.68,3.114 1.68,5.504 0,7.895 -4.55,13.16 -12.69,13.16 -10.04,0 -18.66,-9.57 -18.66,-17.226 0,-3.352 3.36,-3.59 11.02,-3.59 l 8.85,0"
         style="fill:#7b7979;fill-opacity:1;fill-rule:nonzero;stroke:none"
         id="path116" /><path
         d="m 1588.84,412.773 c 0,-16.75 0.96,-18.902 8.85,-19.621 l 4.54,-0.476 c 1.91,-1.438 1.91,-6.938 -0.25,-8.375 -8.37,0.48 -17.69,0.719 -28.7,0.719 -10.77,0 -20.81,-0.239 -28.71,-0.719 -2.16,1.437 -2.16,6.937 -0.25,8.375 l 4.56,0.476 c 7.89,0.719 8.85,2.871 8.85,19.621 l 0,36.122 c 0,9.574 0,12.445 -4.55,15.316 l -3.34,2.152 c -1.69,1.434 -1.69,5.742 0,7.176 11.25,3.109 28.23,9.57 35.4,13.879 1.92,0 3.35,-0.719 4.31,-2.152 -0.48,-7.18 -0.71,-17.707 -0.71,-28.473 l 0,-44.02 z m 1.91,108.141 c 0,-11.484 -8.86,-17.469 -17.95,-17.469 -10.52,0 -16.75,7.18 -16.75,16.989 0,10.527 8.38,17.464 17.94,17.464 10.06,0 16.76,-7.414 16.76,-16.984"
         style="fill:#7b7979;fill-opacity:1;fill-rule:nonzero;stroke:none"
         id="path118" /><path
         d="m 1717.55,424.258 c 0,-22.488 0.96,-27.992 5.51,-27.992 4.3,0 6.21,0.476 10.28,1.914 2.63,-2.157 2.63,-8.137 0.25,-10.289 -23.7,-1.434 -42.36,-8.614 -43.07,-8.614 -1.68,0 -3.59,1.438 -4.07,3.352 l 0.71,7.414 c -0.23,1.914 -1.19,2.633 -2.15,1.914 -8.38,-5.262 -16.99,-10.285 -25.84,-10.285 -27.27,0 -45.69,21.293 -45.69,47.133 0,33.73 25.36,55.261 56.94,55.261 5.26,0 10.99,-0.476 13.63,-1.195 1.68,0.719 2.4,2.633 2.4,4.547 l 0,30.625 c 0,9.57 0,12.203 -4.79,15.07 l -4.07,2.395 c -1.91,1.433 -1.67,5.742 0,7.18 10.29,2.39 24.88,8.132 36.61,13.398 1.67,0 3.12,-0.481 4.07,-1.676 -0.49,-9.808 -0.72,-19.859 -0.72,-34.933 l 0,-95.219 z m -31.1,31.816 c 0,3.828 -0.72,6.223 -1.67,8.137 -2.88,5.023 -8.15,8.851 -13.65,8.851 -12.19,0 -24.16,-12.679 -24.16,-37.796 0,-15.793 7.18,-37.567 26.79,-37.567 3.36,0 6.7,0.957 9.81,2.871 2.63,1.676 2.88,4.785 2.88,9.094 l 0,46.41"
         style="fill:#7b7979;fill-opacity:1;fill-rule:nonzero;stroke:none"
         id="path120" /><path
         d="m 2590.91,766.023 305.695,0 0,47.5 -305.695,0 0,-47.5 z"
         style="fill:#bdbcbc;fill-opacity:1;fill-rule:nonzero;stroke:none"
         id="path122" /><path
         d="m 2588.65,246.523 311.203,0 0,47.5 -311.203,0 0,-47.5 z"
         style="fill:#bdbcbc;fill-opacity:1;fill-rule:nonzero;stroke:none"
         id="path124" /><path
         d="m 2587.69,593.41 311.219,0 0,47.5 -311.219,0 0,-47.5 z"
         style="fill:#bdbcbc;fill-opacity:1;fill-rule:nonzero;stroke:none"
         id="path126" /><path
         d="m 2588.65,419.707 311.203,0 0,47.5 -311.203,0 0,-47.5 z"
         style="fill:#bdbcbc;fill-opacity:1;fill-rule:nonzero;stroke:none"
         id="path128" /><path
         d="m 2588.62,77.1289 308.48,0 0,47.5 -308.48,0 0,-47.5 z"
         style="fill:#bdbcbc;fill-opacity:1;fill-rule:nonzero;stroke:none"
         id="path130" /></g></g></svg>