<?xml version="1.0" encoding="UTF-8" standalone="no"?>
<!-- Created with Inkscape (http://www.inkscape.org/) -->

<svg
   xmlns:dc="http://purl.org/dc/elements/1.1/"
   xmlns:cc="http://creativecommons.org/ns#"
   xmlns:rdf="http://www.w3.org/1999/02/22-rdf-syntax-ns#"
   xmlns:svg="http://www.w3.org/2000/svg"
   xmlns="http://www.w3.org/2000/svg"
   xmlns:sodipodi="http://sodipodi.sourceforge.net/DTD/sodipodi-0.dtd"
   xmlns:inkscape="http://www.inkscape.org/namespaces/inkscape"
   id="svg2"
   version="1.1"
   inkscape:version="0.48.3.1 r9886"
   width="184.25101"
   height="78.098625"
   xml:space="preserve"
   sodipodi:docname="vgc_logo1_zw_p.eps"><metadata
     id="metadata8"><rdf:RDF><cc:Work
         rdf:about=""><dc:format>image/svg+xml</dc:format><dc:type
           rdf:resource="http://purl.org/dc/dcmitype/StillImage" /><dc:title></dc:title></cc:Work></rdf:RDF></metadata><defs
     id="defs6"><clipPath
       clipPathUnits="userSpaceOnUse"
       id="clipPath18"><path
         d="m 0,0 2097.64,0 0,935 L 0,935 0,0 z"
         id="path20"
         inkscape:connector-curvature="0" /></clipPath></defs><sodipodi:namedview
     pagecolor="#ffffff"
     bordercolor="#666666"
     borderopacity="1"
     objecttolerance="10"
     gridtolerance="10"
     guidetolerance="10"
     inkscape:pageopacity="0"
     inkscape:pageshadow="2"
     inkscape:window-width="1375"
     inkscape:window-height="876"
     id="namedview4"
     showgrid="false"
     fit-margin-top="0"
     fit-margin-left="0"
     fit-margin-right="0"
     fit-margin-bottom="0"
     inkscape:zoom="1.5217391"
     inkscape:cx="92.123506"
     inkscape:cy="38.973748"
     inkscape:window-x="65"
     inkscape:window-y="24"
     inkscape:window-maximized="1"
     inkscape:current-layer="g16" /><g
     id="g10"
     inkscape:groupmode="layer"
     inkscape:label="ink_ext_XXXXXX"
     transform="matrix(1.25,0,0,-1.25,-38.9765,97.587375)"><g
       id="g12"
       transform="scale(0.1,0.1)"><g
         id="g14"><g
           id="g16"
           clip-path="url(#clipPath18)"><path
             d="m 1215.04,779.531 13.34,0 -23.96,-87.699 -18.52,0 -23.69,87.699 13.34,0 19.67,-74.508 0.26,0 19.56,74.508"
             style="fill:#231f20;fill-opacity:1;fill-rule:nonzero;stroke:none"
             id="path22"
             inkscape:connector-curvature="0" /><path
             d="m 1321.61,703.988 0,-12.156 -58.28,0 0,87.699 13.35,0 0,-75.543 44.93,0"
             style="fill:#231f20;fill-opacity:1;fill-rule:nonzero;stroke:none"
             id="path24"
             inkscape:connector-curvature="0" /><path
             d="m 1381.95,767.246 -0.26,0 -9.58,-38.035 19.3,0 -9.46,38.035 z m -12.96,-50.195 -6.2,-25.219 -13.47,0 23.95,87.699 16.96,0 23.97,-87.699 -13.48,0 -6.34,25.219 -25.39,0"
             style="fill:#231f20;fill-opacity:1;fill-rule:nonzero;stroke:none"
             id="path26"
             inkscape:connector-curvature="0" /><path
             d="m 1475.18,767.246 -0.26,0 -9.58,-38.035 19.29,0 -9.45,38.035 z m -12.95,-50.195 -6.21,-25.219 -13.47,0 23.95,87.699 16.97,0 23.95,-87.699 -13.47,0 -6.33,25.219 -25.39,0"
             style="fill:#231f20;fill-opacity:1;fill-rule:nonzero;stroke:none"
             id="path28"
             inkscape:connector-curvature="0" /><path
             d="m 1578.63,779.531 20.6,0 0,-87.699 -13.33,0 0,73.082 -0.27,0 -12.04,-44.625 -10.62,0 -12.03,44.625 -0.28,0 0,-73.082 -13.33,0 0,87.699 20.59,0 10.24,-33.758 0.26,0 10.21,33.758"
             style="fill:#231f20;fill-opacity:1;fill-rule:nonzero;stroke:none"
             id="path30"
             inkscape:connector-curvature="0" /><path
             d="m 1633.81,713.434 0,2.711 13.34,0 c 0.13,-8.278 5.94,-13.321 14.24,-13.321 7.52,0 14.51,3.617 14.51,12.156 0,9.575 -9.97,13.325 -19.95,17.985 -9.97,4.781 -20.07,10.351 -20.07,23.402 0,15.141 12.55,24.332 27.07,24.332 12.03,0 25.37,-8.41 25.37,-21.601 l 0,-1.684 -13.34,0 c 0.52,7.375 -5.31,11.117 -12.29,11.117 -7.01,0 -13.47,-2.715 -13.47,-10.992 0,-6.344 5.05,-9.703 10.1,-12.031 l 7.76,-3.613 c 11.92,-5.692 22.16,-11.911 22.16,-26.786 0,-15.398 -13.34,-24.445 -27.85,-24.445 -13.21,0 -27.58,8.281 -27.58,22.77"
             style="fill:#231f20;fill-opacity:1;fill-rule:nonzero;stroke:none"
             id="path32"
             inkscape:connector-curvature="0" /><path
             d="m 1743.1,743.703 34.19,0 0,-12.156 -34.19,0 0,-27.559 40.78,0 0,-12.156 -54.11,0 0,87.699 52.57,0 0,-12.156 -39.24,0 0,-23.672"
             style="fill:#231f20;fill-opacity:1;fill-rule:nonzero;stroke:none"
             id="path34"
             inkscape:connector-curvature="0" /><path
             d="m 1192.76,548.762 0,12.156 31.47,0 0,-42.813 c -7.77,-3.242 -16.84,-5.3 -25.26,-5.3 -26.54,0 -33.79,22.625 -33.79,45.144 0,23.547 7.77,44.883 35.09,44.883 12.83,0 23.96,-8.809 23.96,-17.715 l 0,-1.035 -13.34,0 c -1.29,5.168 -4.79,6.582 -10.62,6.582 -18.64,0 -21.75,-15 -21.75,-31.543 0,-15.41 2.2,-34.16 21.63,-34.16 3.87,0 7.37,0.781 10.74,2.07 l 0,21.731 -18.13,0"
             style="fill:#231f20;fill-opacity:1;fill-rule:nonzero;stroke:none"
             id="path36"
             inkscape:connector-curvature="0" /><path
             d="m 1276.93,565.84 34.19,0 0,-12.168 -34.19,0 0,-27.539 40.79,0 0,-12.168 -54.13,0 0,87.695 52.58,0 0,-12.148 -39.24,0 0,-23.672"
             style="fill:#231f20;fill-opacity:1;fill-rule:nonzero;stroke:none"
             id="path38"
             inkscape:connector-curvature="0" /><path
             d="m 1392.17,601.66 20.6,0 0,-87.695 -13.35,0 0,73.086 -0.26,0 -12.03,-44.629 -10.62,0 -12.04,44.629 -0.25,0 0,-73.086 -13.34,0 0,87.695 20.58,0 10.23,-33.75 0.26,0 10.22,33.75"
             style="fill:#231f20;fill-opacity:1;fill-rule:nonzero;stroke:none"
             id="path40"
             inkscape:connector-curvature="0" /><path
             d="m 1463.4,565.84 34.19,0 0,-12.168 -34.19,0 0,-27.539 40.78,0 0,-12.168 -54.12,0 0,87.695 52.58,0 0,-12.148 -39.24,0 0,-23.672"
             style="fill:#231f20;fill-opacity:1;fill-rule:nonzero;stroke:none"
             id="path42"
             inkscape:connector-curvature="0" /><path
             d="m 1556.62,565.84 34.19,0 0,-12.168 -34.19,0 0,-27.539 40.8,0 0,-12.168 -54.13,0 0,87.695 52.58,0 0,-12.148 -39.25,0 0,-23.672"
             style="fill:#231f20;fill-opacity:1;fill-rule:nonzero;stroke:none"
             id="path44"
             inkscape:connector-curvature="0" /><path
             d="m 1678.48,601.66 12.17,0 0,-87.695 -14.5,0 -31.34,66.359 -0.26,0 0,-66.359 -12.17,0 0,87.695 15.53,0 30.31,-63.633 0.26,0 0,63.633"
             style="fill:#231f20;fill-opacity:1;fill-rule:nonzero;stroke:none"
             id="path46"
             inkscape:connector-curvature="0" /><path
             d="m 1727.05,535.566 0,2.715 13.33,0 c 0.13,-8.281 5.96,-13.32 14.23,-13.32 7.54,0 14.51,3.625 14.51,12.168 0,9.551 -9.97,13.32 -19.93,17.969 -9.97,4.797 -20.07,10.351 -20.07,23.418 0,15.136 12.56,24.316 27.05,24.316 12.03,0 25.37,-8.406 25.37,-21.602 l 0,-1.679 -13.34,0 c 0.55,7.375 -5.29,11.113 -12.28,11.113 -6.99,0 -13.48,-2.715 -13.48,-10.996 0,-6.328 5.06,-9.688 10.11,-12.02 l 7.76,-3.625 c 11.92,-5.691 22.15,-11.894 22.15,-26.777 0,-15.391 -13.34,-24.441 -27.85,-24.441 -13.19,0 -27.56,8.269 -27.56,22.761"
             style="fill:#231f20;fill-opacity:1;fill-rule:nonzero;stroke:none"
             id="path48"
             inkscape:connector-curvature="0" /><path
             d="m 1209.46,404.016 c -0.38,5.3 -5.3,8.796 -10.87,8.796 -14.12,0 -16.31,-22.128 -16.31,-32.468 0,-10.481 1.94,-33.254 16.31,-33.254 5.57,0 10.49,3.887 10.87,9.57 l 13.34,0 c 0,-13.055 -11.26,-21.719 -23.69,-21.719 -23.7,0 -30.17,25.606 -30.17,44.747 0,20.187 6.47,45.273 30.17,45.273 12.43,0 23.69,-8.399 23.69,-20.945 l -13.34,0"
             style="fill:#231f20;fill-opacity:1;fill-rule:nonzero;stroke:none"
             id="path50"
             inkscape:connector-curvature="0" /><path
             d="m 1273.96,375.559 0,-39.465 -13.34,0 0,87.715 13.34,0 0,-36.094 29.25,0 0,36.094 13.34,0 0,-87.715 -13.34,0 0,39.465 -29.25,0"
             style="fill:#231f20;fill-opacity:1;fill-rule:nonzero;stroke:none"
             id="path52"
             inkscape:connector-curvature="0" /><path
             d="m 1381.95,411.523 -0.26,0 -9.58,-38.027 19.3,0 -9.46,38.027 z m -12.96,-50.195 -6.2,-25.234 -13.47,0 23.95,87.715 16.96,0 23.97,-87.715 -13.48,0 -6.34,25.234 -25.39,0"
             style="fill:#231f20;fill-opacity:1;fill-rule:nonzero;stroke:none"
             id="path54"
             inkscape:connector-curvature="0" /><path
             d="m 1477.64,384.473 c 9.2,0 17.09,2.851 17.09,13.457 0,11.515 -6.98,13.711 -16.96,13.711 l -15.79,0 0,-27.168 15.66,0 z m -29.01,39.336 29.66,0 c 17.48,0 29.78,-7.891 29.78,-26.133 0,-18.242 -14.38,-25.352 -30.69,-25.352 l -15.4,0 0,-36.23 -13.35,0 0,87.715"
             style="fill:#231f20;fill-opacity:1;fill-rule:nonzero;stroke:none"
             id="path56"
             inkscape:connector-curvature="0" /><path
             d="m 1540.57,357.695 0,2.735 13.34,0 c 0.13,-8.301 5.95,-13.34 14.25,-13.34 7.5,0 14.5,3.633 14.5,12.168 0,9.57 -9.96,13.32 -19.95,17.98 -9.97,4.785 -20.07,10.34 -20.07,23.418 0,15.125 12.57,24.305 27.07,24.305 12.05,0 25.38,-8.399 25.38,-21.602 l 0,-1.679 -13.33,0 c 0.51,7.382 -5.31,11.132 -12.31,11.132 -6.99,0 -13.46,-2.722 -13.46,-10.996 0,-6.328 5.05,-9.707 10.09,-12.031 l 7.78,-3.613 c 11.9,-5.703 22.13,-11.914 22.13,-26.785 0,-15.391 -13.33,-24.446 -27.83,-24.446 -13.22,0 -27.59,8.274 -27.59,22.754"
             style="fill:#231f20;fill-opacity:1;fill-rule:nonzero;stroke:none"
             id="path58"
             inkscape:connector-curvature="0" /><path
             d="m 1675.64,404.016 c -0.4,5.3 -5.32,8.796 -10.89,8.796 -14.11,0 -16.32,-22.128 -16.32,-32.468 0,-10.481 1.94,-33.254 16.32,-33.254 5.57,0 10.49,3.887 10.89,9.57 l 13.33,0 c 0,-13.055 -11.26,-21.719 -23.71,-21.719 -23.69,0 -30.16,25.606 -30.16,44.747 0,20.187 6.47,45.273 30.16,45.273 12.45,0 23.71,-8.399 23.71,-20.945 l -13.33,0"
             style="fill:#231f20;fill-opacity:1;fill-rule:nonzero;stroke:none"
             id="path60"
             inkscape:connector-curvature="0" /><path
             d="m 1737.01,379.434 c 0,-10.996 2.46,-32.344 17.75,-32.344 15.14,0 17.72,21.348 17.72,32.344 0,11.25 -2.32,33.378 -17.72,33.378 -15.54,0 -17.75,-22.128 -17.75,-33.378 z m 48.81,0.644 c 0,-19.277 -8.65,-45.137 -31.06,-45.137 -22.42,0 -31.09,25.86 -31.09,45.137 0,17.727 8.81,44.883 31.09,44.883 22.26,0 31.06,-27.156 31.06,-44.883"
             style="fill:#231f20;fill-opacity:1;fill-rule:nonzero;stroke:none"
             id="path62"
             inkscape:connector-curvature="0" /><path
             d="m 1205.71,245.938 20.59,0 0,-87.696 -13.33,0 0,73.086 -0.26,0 -12.05,-44.629 -10.61,0 -12.05,44.629 -0.26,0 0,-73.086 -13.34,0 0,87.696 20.6,0 10.22,-33.75 0.26,0 10.23,33.75"
             style="fill:#231f20;fill-opacity:1;fill-rule:nonzero;stroke:none"
             id="path64"
             inkscape:connector-curvature="0" /><path
             d="m 1298.95,245.938 20.59,0 0,-87.696 -13.34,0 0,73.086 -0.26,0 -12.04,-44.629 -10.63,0 -12.03,44.629 -0.26,0 0,-73.086 -13.34,0 0,87.696 20.58,0 10.24,-33.75 0.26,0 10.23,33.75"
             style="fill:#231f20;fill-opacity:1;fill-rule:nonzero;stroke:none"
             id="path66"
             inkscape:connector-curvature="0" /><path
             d="m 1388.42,170.391 15.8,0 0,-12.149 -44.92,0 0,12.149 15.78,0 0,63.398 -13.2,0 0,12.149 39.62,0 0,-12.149 -13.08,0 0,-63.398"
             style="fill:#231f20;fill-opacity:1;fill-rule:nonzero;stroke:none"
             id="path68"
             inkscape:connector-curvature="0" /><path
             d="m 1447.34,179.836 0,2.734 13.34,0 c 0.12,-8.293 5.96,-13.332 14.24,-13.332 7.51,0 14.51,3.625 14.51,12.149 0,9.57 -9.98,13.32 -19.94,17.98 -9.98,4.793 -20.08,10.371 -20.08,23.418 0,15.125 12.57,24.324 27.06,24.324 12.05,0 25.39,-8.406 25.39,-21.609 l 0,-1.672 -13.34,0 c 0.52,7.375 -5.32,11.125 -12.31,11.125 -6.99,0 -13.46,-2.715 -13.46,-10.996 0,-6.34 5.04,-9.707 10.1,-12.043 l 7.77,-3.613 c 11.91,-5.692 22.14,-11.895 22.14,-26.778 0,-15.398 -13.33,-24.441 -27.84,-24.441 -13.22,0 -27.58,8.281 -27.58,22.754"
             style="fill:#231f20;fill-opacity:1;fill-rule:nonzero;stroke:none"
             id="path70"
             inkscape:connector-curvature="0" /><path
             d="m 1540.57,179.836 0,2.734 13.34,0 c 0.13,-8.293 5.95,-13.332 14.25,-13.332 7.5,0 14.5,3.625 14.5,12.149 0,9.57 -9.96,13.32 -19.95,17.98 -9.97,4.793 -20.07,10.371 -20.07,23.418 0,15.125 12.57,24.324 27.07,24.324 12.05,0 25.38,-8.406 25.38,-21.609 l 0,-1.672 -13.33,0 c 0.51,7.375 -5.31,11.125 -12.31,11.125 -6.99,0 -13.46,-2.715 -13.46,-10.996 0,-6.34 5.05,-9.707 10.09,-12.043 l 7.78,-3.613 c 11.9,-5.692 22.13,-11.895 22.13,-26.778 0,-15.398 -13.33,-24.441 -27.83,-24.441 -13.22,0 -27.59,8.281 -27.59,22.754"
             style="fill:#231f20;fill-opacity:1;fill-rule:nonzero;stroke:none"
             id="path72"
             inkscape:connector-curvature="0" /><path
             d="m 1668.13,170.391 15.79,0 0,-12.149 -44.94,0 0,12.149 15.81,0 0,63.398 -13.22,0 0,12.149 39.63,0 0,-12.149 -13.07,0 0,-63.398"
             style="fill:#231f20;fill-opacity:1;fill-rule:nonzero;stroke:none"
             id="path74"
             inkscape:connector-curvature="0" /><path
             d="m 1743.1,210.109 34.19,0 0,-12.16 -34.19,0 0,-27.558 40.78,0 0,-12.149 -54.11,0 0,87.696 52.57,0 0,-12.149 -39.24,0 0,-23.68"
             style="fill:#231f20;fill-opacity:1;fill-rule:nonzero;stroke:none"
             id="path76"
             inkscape:connector-curvature="0" /><path
             d="M 844.125,490.117 C 844.125,308.879 707.68,178.918 581.07,162.266 454.527,178.918 318.051,308.879 318.051,490.117 c 0,0 0,64.707 0,132.238 l 526.074,0 c 0,-67.531 0,-132.238 0,-132.238"
             style="fill:#ffffff;fill-opacity:1;fill-rule:nonzero;stroke:none"
             id="path78"
             inkscape:connector-curvature="0" /><path
             d="m 541.383,708.867 c 18.867,0 21.785,-18.777 21.785,-27.859 0,-9.094 4.082,-17.403 7.559,-17.403 0.539,1.024 0.742,2.957 1.933,4.083 -4.472,1.179 -6.433,7.363 -6.433,20.3 0,18.75 -9.688,24.922 -23.86,24.922 -3.711,0 4.258,9.297 12.598,9.297 8.359,0 10.676,-6.766 13.683,-9.707 -11.328,22.062 -9.601,48.918 -0.675,48.918 5.675,0 -2.703,-34.375 7.207,-52.121 -1.532,18.887 -1.746,60.586 16.347,61.34 4.121,0.215 5.606,-1.309 5.606,-2.297 0,-2.11 -13.27,-1.231 -18.047,-64.5 13.203,21.25 17.902,43.465 15.734,57.578 18.75,13.965 10.086,-29.922 -8.136,-51.406 30.117,25.136 19.511,40.859 21.152,42.488 2.988,2.969 8.965,1.359 8.965,-9.617 0,-12.981 -16.504,-28.106 -24.512,-34.016 13.008,1.953 18.684,-5.859 15.41,-12.41 8.496,2.832 16.594,3.887 21.719,4.102 24.492,0.964 34.035,-12.786 34.035,-20.481 0,-7.773 -3.75,-7.558 -8.801,-8.308 -13.554,-2.129 -10.281,17.507 -37.48,16.796 -29.336,-0.793 -47.344,-23.507 -41.992,-44.687 0.695,-2.746 -2.078,31.738 31.914,31.738 11.261,0 19.074,-6.535 19.074,-10.683 0,-3.996 -1.613,-6.485 -7.246,-6.485 -8.535,0 -8.906,7.149 -18.84,7.149 -12.812,0 -20.195,-16.047 -20.195,-24.914 0,-5.098 8.058,-9.95 3.691,-12.618 -5.476,-3.281 -16.328,9.153 -14.031,29.2 -14.582,0.988 -6.75,36.523 -19.035,36.523 -7.774,0 -13.817,-10.848 -21.543,-10.848 -6.856,0 -9.715,4.336 -9.715,10.079 0,5.769 9.715,15.847 22.129,15.847"
             style="fill:#ffffff;fill-opacity:1;fill-rule:nonzero;stroke:none"
             id="path80"
             inkscape:connector-curvature="0" /><path
             d="M 844.125,490.117 C 844.125,308.879 707.68,178.918 581.07,162.266 454.527,178.918 318.051,308.879 318.051,490.117 c 0,0 0,64.707 0,132.238 l 526.074,0 c 0,-67.531 0,-132.238 0,-132.238 z m -302.742,218.75 c 18.867,0 21.785,-18.777 21.785,-27.859 0,-9.094 4.082,-17.403 7.559,-17.403 0.539,1.024 0.742,2.957 1.933,4.083 -4.472,1.179 -6.433,7.363 -6.433,20.3 0,18.75 -9.688,24.922 -23.86,24.922 -3.711,0 4.258,9.297 12.598,9.297 8.359,0 10.676,-6.766 13.683,-9.707 -11.328,22.062 -9.601,48.918 -0.675,48.918 5.675,0 -2.703,-34.375 7.207,-52.121 -1.532,18.887 -1.746,60.586 16.347,61.34 4.121,0.215 5.606,-1.309 5.606,-2.297 0,-2.11 -13.27,-1.231 -18.047,-64.5 13.203,21.25 17.902,43.465 15.734,57.578 18.75,13.965 10.086,-29.922 -8.136,-51.406 30.117,25.136 19.511,40.859 21.152,42.488 2.988,2.969 8.965,1.359 8.965,-9.617 0,-12.981 -16.504,-28.106 -24.512,-34.016 13.008,1.953 18.684,-5.859 15.41,-12.41 8.496,2.832 16.594,3.887 21.719,4.102 24.492,0.964 34.035,-12.786 34.035,-20.481 0,-7.773 -3.75,-7.558 -8.801,-8.308 -13.554,-2.129 -10.281,17.507 -37.48,16.796 -29.336,-0.793 -47.344,-23.507 -41.992,-44.687 0.695,-2.746 -2.078,31.738 31.914,31.738 11.261,0 19.074,-6.535 19.074,-10.683 0,-3.996 -1.613,-6.485 -7.246,-6.485 -8.535,0 -8.906,7.149 -18.84,7.149 -12.812,0 -20.195,-16.047 -20.195,-24.914 0,-5.098 8.058,-9.95 3.691,-12.618 -5.476,-3.281 -16.328,9.153 -14.031,29.2 -14.582,0.988 -6.75,36.523 -19.035,36.523 -7.774,0 -13.817,-10.848 -21.543,-10.848 -6.856,0 -9.715,4.336 -9.715,10.079 0,5.769 9.715,15.847 22.129,15.847 z m -229.571,70.664 0,-289.414 c 0,-184.715 139.551,-317.273 268.887,-334.121 l 0.371,-0.086 0.418,0.086 c 129.309,16.777 268.907,149.406 268.907,334.121 l 0,289.414 -538.583,0"
             style="fill:#231f20;fill-opacity:1;fill-rule:nonzero;stroke:none"
             id="path82"
             inkscape:connector-curvature="0" /><path
             d="m 536.871,510.168 c -3.742,6.18 -6.555,7.469 -14.719,7.773 -10.457,0.899 -23.359,-9.062 -30.711,3.887 -0.957,4.149 -0.957,7.715 2.293,11.024 1.633,0.683 4.688,0.683 5.977,-0.801 2.492,-1.719 4.434,-4.102 4.504,-7.059 16.648,0.594 26.805,-2.004 32.656,-14.824"
             style="fill:#231f20;fill-opacity:1;fill-rule:nonzero;stroke:none"
             id="path84"
             inkscape:connector-curvature="0" /><path
             d="m 480.59,574.512 c 4.433,-0.672 10.851,-13.426 10.976,-15.574 0.176,-2.258 -0.886,-4.727 -1.855,-5.372 -0.887,-0.644 -6.563,-0.714 -8.445,2.098 -2.481,3.652 2.734,12.102 -0.676,18.848"
             style="fill:#231f20;fill-opacity:1;fill-rule:nonzero;stroke:none"
             id="path86"
             inkscape:connector-curvature="0" /><path
             d="m 447.367,578.887 c 13.469,0.695 15.195,-8.075 14.934,-12.032 -0.196,-3.046 -8.496,-3.73 -10.371,-2.226 -1.946,1.543 1.726,10.012 -4.563,14.258"
             style="fill:#231f20;fill-opacity:1;fill-rule:nonzero;stroke:none"
             id="path88"
             inkscape:connector-curvature="0" /><path
             d="m 425.668,561.516 c 7.102,1.289 13.039,-4.668 13.887,-7.2 0.918,-2.683 -4.325,-8.964 -7.508,-7.265 -3.078,1.738 -1.379,11.457 -6.379,14.465"
             style="fill:#231f20;fill-opacity:1;fill-rule:nonzero;stroke:none"
             id="path90"
             inkscape:connector-curvature="0" /><path
             d="m 419.41,525.852 c -1.055,-9.973 7.832,-17.649 14.512,-16.223 2.312,0.488 0.215,7.129 -1.027,8.703 -2.383,3.008 -7.598,0 -13.485,7.52"
             style="fill:#231f20;fill-opacity:1;fill-rule:nonzero;stroke:none"
             id="path92"
             inkscape:connector-curvature="0" /><path
             d="m 439.84,408.867 c 8.426,-0.125 7.461,-8.426 9.422,-9.929 1.972,-1.524 7.648,-0.02 8.41,2.714 1.64,5.496 -11.133,11.914 -17.832,7.215"
             style="fill:#231f20;fill-opacity:1;fill-rule:nonzero;stroke:none"
             id="path94"
             inkscape:connector-curvature="0" /><path
             d="m 420.258,367.57 c 2.14,5.203 11.574,2.52 14.101,4.864 2.532,2.312 1.77,9.726 -2.949,10.332 -3.535,0.41 -11.394,-9.61 -11.152,-15.196"
             style="fill:#231f20;fill-opacity:1;fill-rule:nonzero;stroke:none"
             id="path96"
             inkscape:connector-curvature="0" /><path
             d="m 436.715,332.812 c 0,4.895 8.074,8.762 7.664,13.301 -0.418,4.485 -5.672,6.035 -7.859,4.055 -2.161,-1.906 -3.516,-15.363 0.195,-17.356"
             style="fill:#231f20;fill-opacity:1;fill-rule:nonzero;stroke:none"
             id="path98"
             inkscape:connector-curvature="0" /><path
             d="m 459.684,331.543 c 7.246,6.164 4.492,7.883 5.086,10.461 0.566,2.558 8.859,4.109 10.214,0.84 2.18,-5.391 -7.468,-13.489 -15.3,-11.301"
             style="fill:#231f20;fill-opacity:1;fill-rule:nonzero;stroke:none"
             id="path100"
             inkscape:connector-curvature="0" /><path
             d="m 479.496,302.668 c 4.699,-1.27 5.879,-11.367 9.024,-12.285 3.164,-1.016 8.644,4.031 8.046,7.363 -0.586,3.309 -11.562,7.656 -17.07,4.922"
             style="fill:#231f20;fill-opacity:1;fill-rule:nonzero;stroke:none"
             id="path102"
             inkscape:connector-curvature="0" /><path
             d="m 462.23,253.301 c 2.735,4.511 10,3.906 12.336,5.09 2.364,1.113 2.157,11.277 -1.328,11.707 -3.535,0.363 -13.164,-8.446 -11.008,-16.797"
             style="fill:#231f20;fill-opacity:1;fill-rule:nonzero;stroke:none"
             id="path104"
             inkscape:connector-curvature="0" /><path
             d="m 494.391,221.719 c -2.707,2.765 0.214,10.285 -0.371,13.469 -0.567,3.093 -7.247,6.804 -9.825,4.257 -2.578,-2.539 0.809,-16.757 10.196,-17.726"
             style="fill:#231f20;fill-opacity:1;fill-rule:nonzero;stroke:none"
             id="path106"
             inkscape:connector-curvature="0" /><path
             d="m 504.672,222.102 c 5.605,1.375 6.418,8.035 7.883,9.648 1.504,1.609 10.515,4.941 12.129,2.254 1.707,-2.684 -7.746,-17.168 -20.012,-11.902"
             style="fill:#231f20;fill-opacity:1;fill-rule:nonzero;stroke:none"
             id="path108"
             inkscape:connector-curvature="0" /><path
             d="m 609.977,269.902 c 4.687,1.145 7.793,-4.531 10.359,-5.515 2.539,-0.91 8.234,4.707 6.855,8.008 -1.375,3.328 -13.132,3.328 -17.214,-2.493"
             style="fill:#231f20;fill-opacity:1;fill-rule:nonzero;stroke:none"
             id="path110"
             inkscape:connector-curvature="0" /><path
             d="m 605.453,221.887 c 0.156,5.261 7.988,6.25 10,8.035 1.945,1.719 -1.797,11.086 -5.105,10.703 -3.34,-0.391 -9.61,-12.313 -4.895,-18.738"
             style="fill:#231f20;fill-opacity:1;fill-rule:nonzero;stroke:none"
             id="path112"
             inkscape:connector-curvature="0" /><path
             d="m 640.902,199.074 c -1.355,4.121 1.203,10.184 1.789,13.055 0.633,2.969 -8.82,5.851 -10.781,3.937 -1.984,-1.953 3.145,-15.039 8.992,-16.992"
             style="fill:#231f20;fill-opacity:1;fill-rule:nonzero;stroke:none"
             id="path114"
             inkscape:connector-curvature="0" /><path
             d="m 653.648,207.004 c 3.778,1.367 5.918,9.043 6.797,10.957 0.887,1.953 10.321,6.016 12.235,3.133 1.945,-2.813 -13.485,-17.793 -19.032,-14.09"
             style="fill:#231f20;fill-opacity:1;fill-rule:nonzero;stroke:none"
             id="path116"
             inkscape:connector-curvature="0" /><path
             d="m 477.906,441.523 c 7.528,21.329 16.699,35.188 27.196,41.7 -29.571,21.437 -21.473,45.527 -19.969,51.797 0.457,1.484 10.234,4.64 9.344,11.132 -0.723,5.215 -6.18,3.223 -10.332,4.512 -6.192,2.012 -4.793,5.215 -7.333,6.184 -2.531,0.84 -5.91,-1.887 -6.281,-3.438 -0.371,-1.543 1.809,-4.512 -0.371,-5.566 -2.226,-1.028 -3.953,2.215 -3.953,4.023 0,1.824 3.535,5.711 1.727,8.934 -1.727,3.078 -6.836,-0.039 -10.262,-0.43 -3.36,-0.43 -10.938,2.024 -11.719,-2.215 -0.656,-3.457 3.516,-4.836 4.453,-6.523 0.938,-1.719 0.938,-5.098 -1.73,-5.481 -2.637,-0.351 0,5.481 -2.86,6.399 -2.863,0.859 -5.234,-4.707 -7.199,-6.125 -1.961,-1.434 -8.105,-0.918 -7.84,-5.86 0.418,-7.39 12.032,-4.832 11.875,-9.882 -0.109,-4.942 -6.066,-1.336 -7.687,-3.758 -2.723,-4.172 1.555,-7.481 2.578,-10.168 2.012,-4.922 -0.723,-9.598 3.555,-11.153 3.281,-1.179 6.203,5.743 7.949,3.868 1.73,-1.844 2.141,-7.793 -0.477,-9.883 -2.617,-2.039 -6.132,-0.555 -8.097,1.828 -0.262,-7.773 9.648,-12.715 15.695,-12.336 0.887,-6.23 -5.391,-7.859 -11.789,-5.73 3.254,-14.434 15.305,-13.625 18.683,-13.254 0.157,-4.512 -5.5,-8.192 -13.574,-4.024 4.297,-14.16 15.692,-13.535 23.926,-9.082 1.68,-4.793 -7.102,-9.129 -11.66,-7.41 0.672,-5.547 10.144,-10.578 16.152,-8.059"
             style="fill:#231f20;fill-opacity:1;fill-rule:nonzero;stroke:none"
             id="path118"
             inkscape:connector-curvature="0" /><path
             d="m 511.266,417.551 c -9.434,-22.774 -32.657,-28.946 -42.961,-25.617 -2.227,0.664 1.261,4.492 -0.789,7.394 -2.512,3.582 -8.204,-1.914 -10.567,-2.902 -2.375,-1.035 -10.781,-0.391 -11.222,-4.082 -0.372,-3.739 4.765,-5.332 3.195,-7.266 -2.578,-3.113 -3.742,3.164 -7.707,1.211 -2.645,-1.355 -1.746,-5.457 -1.942,-8.379 -0.175,-2.93 -1.816,-11.023 1.2,-12.137 4.121,-1.484 6.875,5.985 8.574,0.829 1.855,-5.516 -6.504,-1.739 -9.207,-5.282 -2.051,-2.746 1.258,-4.062 5.887,-7.988 7.031,-6.035 2.539,-8.918 8.253,-8.984 5,-0.09 1.661,12.293 7.422,11.882 3.516,-0.261 -1.523,-4.882 0,-8.359 1.621,-3.523 6.289,-0.195 9.453,0.149 3.125,0.476 9.239,-0.793 10.411,2.578 1.16,3.269 -4.121,6.98 -0.391,8.593 5.742,2.364 3.516,-4.316 4.715,-7.238 1.183,-2.898 4.121,-3.457 5.285,-7.605 5.691,1.015 2.918,13.047 4.891,16.562 7.461,4.188 2.226,-9.211 6.066,-12.199 0.613,5.156 6.98,5.031 8.641,12.012 1.484,5.879 -0.301,7.687 -1.239,10.586 6.485,3.437 3.289,-5.75 9.493,-7.559 4.453,-1.395 8.64,1.113 10,2.852 -10.782,4.816 -1.77,11.496 -5.305,14.894 7.14,1.035 4.914,-5.715 7.637,-7.824 2.492,-1.934 6.503,-2.938 9.238,-1.113 -6.621,3.925 1.523,12.519 0,18.105 5.5,-7.363 10.644,-11.25 17.656,-6.68 -5.984,3.118 -2.156,12.696 -9.539,15.489 11.133,3.722 7.156,-7.215 13.145,-10.137 3.093,-1.434 5.457,-0.84 6.785,1.203 -4.012,1.523 -2.703,10.418 2.336,10.418 4.343,0 5.527,-3.523 6.004,-7.09 0.41,-2.937 -1.571,-5.711 -1.922,-7.82 -8.145,-1.438 -29.532,-17.981 -36.035,-20.039 -11.446,-3.653 -40.606,-32.57 -43.575,-34.699 -2.902,-2.196 -8.75,-3.055 -13.312,0 1.262,-18.524 25.117,-17.383 35.734,-10.957 1.153,-4.278 5.653,-5.653 5.848,-9.559 0.215,-3.848 4.101,-7.395 9.25,-7.395 -2.375,-16.562 -19.777,-21.589 -25.91,-17.761 -2.879,1.883 2.968,5.664 -1.543,8.777 -4.52,3.117 -7.879,-4.48 -10.985,-5.965 -3.183,-1.613 -9.687,-4.347 -9.101,-7.89 0.527,-2.442 8.32,-2.442 4.383,-7.2 -2.528,-3.007 -7.09,3.918 -10.606,1.555 -3.555,-2.363 -0.781,-7.004 -0.215,-10.078 0.657,-3.184 -1.375,-9.973 1.77,-11.367 3.164,-1.328 10.019,5.066 11.543,1.179 1.64,-3.886 -5.852,-2.507 -5.461,-7.605 0.351,-5.051 3.566,-2.492 5.461,-4.875 2.012,-2.363 7.383,-9.043 10.242,-6.211 4.758,4.582 -1.688,13.84 6.457,11.477 6.551,-1.829 -1.945,-5.977 0,-9.954 1.961,-3.906 2.383,-1.687 8.867,-0.574 6.453,1.18 8.485,0.879 8.68,4.336 0.226,3.485 -5.996,4.129 -2.332,8.27 1.531,1.613 4.519,1.426 5.371,-1.024 2.898,-8.144 4.805,-5.176 6.504,-13.73 2.93,4.336 -3.555,14.394 1.66,22.558 1.746,-9.628 6.551,-14.757 10.105,-15.148 -4.753,9.492 1.594,18.547 1.067,22.578 -0.586,4.473 -2.746,6.711 -4.141,8.359 8.485,2.793 7.723,-6.66 9.539,-9.023 2.336,-3.133 7.051,-5.156 9.973,-3.973 -12.773,7.196 -0.48,19.227 -5.48,27.93 9.718,4.422 0.527,-17.707 17.316,-17.383 -2.969,1.895 -6.926,10.117 -2.188,14.824 4.668,4.668 5.438,16.825 1.942,22.391 -6.719,10.996 -17.547,5.234 -19.012,22.617 -0.527,6.25 8.074,11.028 13.36,11.367 9.648,0.579 17.656,-8.503 29.578,-3.992 -1.356,14.071 6.418,32.715 12.57,38.438 2.363,7.469 0.898,13.894 -3.449,18.172 5.351,1.504 8.644,-3.27 9.238,-6.211 0.637,-2.899 0.547,-11.133 -1.289,-14.891 -3.887,-3.547 -11.785,-16.777 -11.434,-34.414 0.196,-11.086 7.09,-25.996 2.637,-33.769 -4.492,-7.93 -9.805,-5.481 -13.516,-3.575 1.426,-8.808 20.809,-13.574 27.95,-5.41 0.886,1.055 -0.598,1.25 1.609,3.906 1.133,1.289 3.359,-0.214 6.504,0 3.105,0.176 3.105,0.371 4.297,2.11 1.777,-5.41 11.816,-9.543 16.906,-6.621 8.203,-8.489 9.883,-26.965 -3.32,-32.121 -11.203,-4.461 -8.059,5.851 -12.383,6.984 -4.336,1.18 -4.824,-4.57 -7.219,-6.633 -2.312,-2.176 -7.859,-4.902 -6.512,-8.574 1.375,-3.699 8.387,-1.199 6.055,-6.66 -2.277,-5.282 -6.75,3.781 -10.762,0.558 -5.109,-3.886 -0.226,-6.789 1.172,-11.476 1.395,-4.676 0.547,-12.801 5.262,-12.246 6.223,0.695 6.699,11.476 11.223,7.929 4.843,-3.691 -3.555,-4.832 -3.145,-9.519 0.371,-4.68 3.535,-1.953 7.637,-3.672 4.148,-1.777 7.273,-5.676 10.437,-1.973 3.098,3.692 -5.086,9.578 0.938,12.481 4.933,2.324 1.769,-5.625 5.305,-7.199 4.257,-1.973 5.546,1.007 8.816,1.953 3.32,0.929 9.824,-0.059 9.824,4.258 0,4.25 -7.859,5.324 -8.23,11.425 -0.254,3.938 3.535,5.742 6.375,6.985 2.707,-4.493 0.09,-4.746 0.566,-7.305 0.852,-4.621 6.68,-4.895 7.16,-9.328 3.321,4.113 -0.586,6.34 -0.371,11.094 0.223,4.66 2.821,5.605 3.496,13.507 0.262,3.114 -0.461,4.219 -3.234,5.672 1.574,3.528 4.348,4.153 6.68,1.524 2.531,-2.899 -1.18,-8.008 0.586,-10.887 1.75,-2.863 3.867,-4.367 4.855,-7.48 3.309,2.324 -0.617,5.437 -0.988,10.917 -0.438,5.438 3.554,9.2 2.648,13.946 -0.598,2.879 -1.797,3.797 -4.433,4.383 1.328,2.511 3.359,3.566 6.308,0.832 4.949,-4.446 3.203,-13.43 10.164,-12.141 -6.414,6.496 -2.656,14.074 -5.41,22.668 -2.07,6.512 -3.035,7.051 -4.98,8.594 3,3.718 6.73,3.523 8.605,-0.254 2.383,-4.66 -1.926,-7.129 1.199,-11.457 3.145,-4.266 6.27,-4.551 10.176,-3.563 -6.902,6.66 1.399,8.7 -1.16,21.289 -1.328,6.582 -5.676,12.996 -11.152,14.395 -5.5,1.426 -10.801,0.195 -13.379,-2.902 -3.645,2.734 -0.137,9.074 -8.039,12.082 -5.497,2.128 -7.852,1.992 -10.782,1.347 -3.339,6.278 -13.339,9.949 -18.445,9.219 2.988,3.828 7.207,20.605 7.441,26.66 16.61,-20 39.493,-21.633 45.34,-24.172 9.082,-3.926 10.129,-24.832 21.399,-30.761 -6.946,13.515 2.859,33.769 -11.817,42.734 9.649,3.242 16.375,15.742 15.157,27.48 -2.207,19.59 -19.239,16.993 -23.36,38.321 -1.164,6.086 3.66,11.515 8.008,12.695 3.516,0.93 9.844,-3.086 11.023,-5.215 4.082,5.676 -2.859,17.598 -10.234,18.086 -12.312,0.754 -18.867,-9.219 -20.215,-15.039 -7.527,7.891 -3.074,21.719 4.348,25.402 11.023,5.411 17.832,-1.359 19.012,-6.406 3.468,12.266 -5.848,19.695 -13.907,20.215 -9.695,0.711 -19.519,-5.996 -24.91,-16.387 -2.179,1.563 -2.121,6.035 1.356,10.742 19.777,26.875 60.011,44.227 42.785,78.583 0.39,-20.43 -25.52,-49.715 -43.574,-54.981 9.043,21.055 32.597,47.082 31.589,67.676 -1.199,26.047 -20.3,40.422 -39.988,40.5 -26.789,0.242 -44.973,-17.981 -46.933,-38.535 -1.504,-16.075 7.839,-35.86 -10.938,-62.766 12.637,4.082 18.535,20.176 18.777,28.77 0.52,13.281 -4.765,17.812 -3.015,33.75 0.957,8.359 9.609,21.808 20.496,20.5 -7.227,-2.813 -15.195,-12.786 -15.567,-20.43 -0.886,-17.102 3.711,-24.211 3.977,-32.461 0.613,-16.699 -10.742,-23.332 -10.176,-34.66 0.899,-19.102 13.867,-27.645 12.364,-42.324 9.07,9.687 -0.157,31.601 -0.372,39.98 -0.246,8.359 10.469,21.836 7.723,32.188 -2.488,9.414 -6.836,13.664 -7.137,29.113 -0.214,9.687 5.762,19.941 15.106,19.59 -5.633,-2.813 -10.352,-12.52 -10.242,-19.16 0.437,-20.45 9.804,-29.153 10.984,-39.063 0.391,-3.332 -1.512,-13.43 -6.043,-19.16 13.965,8.164 13.504,32.801 10.449,42 -2.812,8.574 -9.492,10.637 -10,17.258 -0.5,7.363 4.852,18.125 13.231,17.011 -5.477,-3.632 -9.149,-9.308 -8.114,-16.046 0.653,-4.383 4.707,-9.774 10.391,-10.165 5.711,-0.429 10.098,4.297 10.906,11.368 -3.34,-4.493 -10.039,-4.102 -11.414,0.195 -1.347,4.297 4.649,14.023 12.969,13.035 7.793,-0.945 12.109,-5.547 13.164,-13.035 4.297,-31.848 -40.43,-68.926 -36.504,-99.074 4.981,-37.832 37.813,-43.289 47.5,-69.969 3.711,-10.293 0.77,-17.383 -7.07,-21.652 -12.492,-6.836 -30.078,15.097 -31.543,20.382 -3.692,13.797 -32.52,70.36 -52.149,85.34 -10.019,-5.722 -19.953,-0.84 -23.996,2.871 0.813,-3.406 9.895,-5 10.762,-12.136 0.441,-3.352 -1.277,-4.727 -3.906,-5.625 -1.942,4.101 -13.75,5.625 -17.391,9.168 4.121,-5.282 12.227,-6.981 13.66,-14.258 0.813,-4.024 -2.312,-10.613 -7.597,-11.219 0.508,4.297 -1.942,7.41 -5.301,9.774 -3.32,2.304 -19.563,1.445 -23.488,8.644 -0.418,-1.289 0.441,-5.996 -0.789,-9.309 -2.227,-5.625 -9.016,-7.558 -9.621,-11.043 -0.614,-3.515 1.378,-6.25 3.906,-8.164 -7.813,-3.046 -15.067,1.122 -13.887,9.454 1.133,8.035 7.102,11.003 7.246,16.433 0.109,3.613 -1.289,3.508 -2.351,7.785 -0.918,-1.34 -0.09,-5.187 -1.008,-11.133 -0.782,-5.136 -6.699,-9.308 -7.137,-11.75 -0.852,-4.511 1.023,-5.906 2.559,-7.156 -5.528,-3.781 -12.032,0.555 -12.727,5.281 -0.633,3.762 3.117,8.985 2.395,9.688 -0.801,0.84 -6.633,-0.273 -6.262,-5.496 0.851,-12.715 11.328,-15.684 15.781,-17.57 -5.867,-5.008 -17.176,-3.934 -22.937,0.949"
             style="fill:#231f20;fill-opacity:1;fill-rule:nonzero;stroke:none"
             id="path120"
             inkscape:connector-curvature="0" /><path
             d="m 560.113,550.812 c 0.242,-7.882 5.899,-7.609 15.215,-3.996 -0.723,1.633 -5.39,5.969 -6.984,6.594 -2.117,0 -6.551,-0.488 -8.231,-2.598 z m -90.41,-126.113 c 3.602,-0.109 9.578,1.934 13.074,13.281 12.004,38.993 27.219,44.766 41.477,44.766 14.473,0 15.625,-0.215 18.594,0.371 5.496,1.004 10.867,7.899 10.722,10.528 -1.359,-1.204 -2.968,-1.934 -5.879,-1.934 -2.882,0 -6.484,1.648 -10.734,1.133 -5.652,-0.664 -5.809,-2.961 -6.66,-6.27 -7.07,7.696 -4.297,17.852 -3.32,19.031 0.546,0.586 1.164,0.586 1.855,0.5 0.195,1.375 1.074,5.536 2.316,6.551 1.024,-2.363 2.012,-6.172 7.879,-6.551 5.938,-0.39 11.262,5.887 11.399,12.5 0.176,6.641 -3.801,10.938 -9.434,10.79 -6.965,-0.215 -9.933,-5.586 -10.695,-8.055 -3.621,2.469 -2.246,10.957 -5.918,11.445 -0.234,3.242 1.183,13.367 3.848,14.949 -1.747,5.157 0.976,8.379 2.218,8.84 13.496,0 19.981,4.512 21.836,6.981 1.785,2.492 3.399,8.457 8.641,10.175 13.293,4.278 20.109,-0.613 26.242,0.11 8.008,0.887 13.535,3.758 13.621,8.73 1.328,-1.183 3.184,-4.347 3.184,-8 0,-4.675 -9.453,-8.269 -5.262,-12.586 3.359,8.164 16.023,5.672 20.781,10.957 4.082,-8.488 -1.484,-19.355 -13.293,-23.886 4.153,-2.434 7.793,-1.289 12.922,4.297 2.821,-10.704 -3.664,-18.332 -8.144,-20.5 2.363,-3.204 -2.246,-15.164 2.312,-18.887 2.121,-1.738 3.516,-2.188 5.227,-0.41 -1.926,-7.684 -9.61,-8.114 -12.578,-6.7 0,-7.585 8.32,-6.015 10.195,-2.773 0.566,-7.988 -7.668,-13.75 -11.856,-13.984 4.102,-13.496 14.122,-14.414 18.321,-11.688 -0.793,-3.027 -4.824,-8.594 -12.617,-12.57 -7.911,-3.828 -18.36,1.437 -21.895,7.91 -3.039,-1.18 -4.484,-2.52 -4.738,-6.426 -0.399,-6.98 10.605,-9.414 11.172,-13.105 -2.403,2.422 -16.258,1.847 -15.477,13.449 -4.277,-1.27 -7.746,-4.816 -6.984,-8.984 1.64,-8.809 11.484,-9.368 14.336,-14.153 1.73,-2.879 1.691,-5.371 0.879,-6.062 -2.93,9.929 -22.704,9.004 -26.192,11.992 -2.312,2.078 -2.93,7.215 -1.484,9.988 -3.563,0 -8.055,-3.543 -8.387,-7.051 -0.41,-3.523 1.004,-8.308 -0.41,-11.796 -1.426,-3.497 -9.805,-6.055 -9.875,-11.192 -0.086,-2.363 -0.195,-3.867 0.898,-5.281 -1.093,0.586 -1.746,2.109 -1.746,4.336 -0.058,6.902 7.488,10.078 7.422,16.805 -0.148,6.933 -5.715,10.48 -1.203,17.246 -4.715,0.605 -8.594,-0.899 -10.449,-6.524 -1.199,-3.699 0.695,-9.238 -0.828,-14.012 -1.536,-4.816 -6.27,-8.164 -6.965,-10.507 -0.196,-0.703 -0.528,-2.871 0.39,-4.485 -1.484,0.45 -2.117,1.399 -2.07,3.137 0.02,2.664 2.902,6.609 2.988,9.559 0.09,1.847 -2.421,3.957 -3.621,3.925 -7.422,-0.214 -12.531,-5.105 -12.531,-10.82 0,-5.652 2.637,-10.254 10.02,-15.769 -11.875,1.16 -16.004,14.91 -16.004,21.14 0,11.067 10.808,22.883 18.339,25.801 -14.296,1.809 -22.335,-16.777 -22.832,-21.66 -0.546,-5.567 -0.773,-12.137 4.227,-19.285 -1.309,-5.176 -11.016,-17.668 -19.969,-17.207 18.34,15.379 9.149,41.824 16.524,53.359 2.597,4.187 9.414,11.941 18.289,14.48 -8.965,3.743 -20.516,-8.074 -23.153,-13.445 -6.535,-13.156 -0.918,-25.742 -8.449,-43.078 -2.363,-2.109 -5.066,-5.73 -13.144,-6.25 -13.836,-0.906 -17.371,15.578 -16.328,20.754 1.503,-3.488 2.558,-7.91 8.976,-7.93"
             style="fill:#231f20;fill-opacity:1;fill-rule:nonzero;stroke:none"
             id="path122"
             inkscape:connector-curvature="0" /></g></g></g></g></svg>