<?xml version="1.0" encoding="UTF-8" standalone="no"?>
<!-- Created with Inkscape (http://www.inkscape.org/) -->

<svg
   xmlns:dc="http://purl.org/dc/elements/1.1/"
   xmlns:cc="http://creativecommons.org/ns#"
   xmlns:rdf="http://www.w3.org/1999/02/22-rdf-syntax-ns#"
   xmlns:svg="http://www.w3.org/2000/svg"
   xmlns="http://www.w3.org/2000/svg"
   xmlns:sodipodi="http://sodipodi.sourceforge.net/DTD/sodipodi-0.dtd"
   xmlns:inkscape="http://www.inkscape.org/namespaces/inkscape"
   width="203.37498"
   height="96.12104"
   id="svg3777"
   version="1.1"
   inkscape:version="0.48.3.1 r9886"
   sodipodi:docname="Nouveau document 2">
  <defs
     id="defs3779" />
  <sodipodi:namedview
     id="base"
     pagecolor="#ffffff"
     bordercolor="#666666"
     borderopacity="1.0"
     inkscape:pageopacity="0.0"
     inkscape:pageshadow="2"
     inkscape:zoom="0.35"
     inkscape:cx="288.11606"
     inkscape:cy="36.631947"
     inkscape:document-units="px"
     inkscape:current-layer="layer1"
     showgrid="false"
     fit-margin-top="0"
     fit-margin-left="0"
     fit-margin-right="0"
     fit-margin-bottom="0"
     inkscape:window-width="1375"
     inkscape:window-height="876"
     inkscape:window-x="65"
     inkscape:window-y="24"
     inkscape:window-maximized="1" />
  <metadata
     id="metadata3782">
    <rdf:RDF>
      <cc:Work
         rdf:about="">
        <dc:format>image/svg+xml</dc:format>
        <dc:type
           rdf:resource="http://purl.org/dc/dcmitype/StillImage" />
        <dc:title></dc:title>
      </cc:Work>
    </rdf:RDF>
  </metadata>
  <g
     inkscape:label="Calque 1"
     inkscape:groupmode="layer"
     id="layer1"
     transform="translate(-86.883939,-472.87309)">
    <path
       style="fill:#000000;fill-opacity:1;fill-rule:nonzero;stroke:none"
       d="m 94.383939,472.87309 c -4.1445,0 -7.5,3.3243 -7.5,7.4687 l 0,67.9376 203.374981,-75.4063 -195.874981,0 z m 99.999991,8.4687 0.8125,3.7188 -2.53125,1 2.65625,13.0938 -4.0625,1.625 -2.75,-13 -3.21875,1.2812 -0.6875,-3.8438 9.78125,-3.875 z m -12.03125,4.5 2.96875,17.0938 -4.09375,1.4375 -0.71875,-5.3437 -2.40625,-2.0938 1.3125,8.1562 -3.90625,1.5 -3.1875,-17.4374 3.21875,-1.0938 3.625,3.6562 -0.78125,-4.5624 3.96875,-1.3126 z m -16.34375,5.5313 7.0625,15.6875 -4,1.625 -1.1875,-2.5938 -4.03125,1.375 -0.40625,3.4063 -4.71875,1.7813 c 1.6515,-11.5929 2.51337,-18.0918 2.5625,-19.5313 l 4.71875,-1.75 z m -11.40625,4.5313 0.8125,3.7187 -2.5,1 2.625,13.0937 -4.0625,1.6563 -2.75,-13 -3.21875,1.25 -0.6875,-3.8437 9.78125,-3.875 z m 10.125,3.1874 -0.25,4.7188 2.09375,-0.5938 -1.84375,-4.125 z m -25.25,1.9688 c 0.44212,-0.0459 0.89537,-0.005 1.34375,0.0625 1.023,0.1498 1.779,0.5773 2.25,1.3125 0.30862,0.5123 0.59562,1.3518 0.875,2.5 l -3.09375,1.25 c -0.35475,-0.8584 -0.908,-1.2159 -1.6875,-1.0312 -0.409,0.1498 -0.69638,0.4576 -0.875,0.9062 -0.16725,0.4244 -0.22275,0.7645 -0.125,1.0312 0.21487,0.587 0.80937,0.9875 1.75,1.1876 0.94062,0.2001 1.86487,0.4049 2.78125,0.5937 1.132,0.3922 1.99387,1.0918 2.5625,2.0937 0.26937,1.0108 0.3745,2.1908 0.34375,3.5938 0,0.6651 -0.30175,1.4212 -0.9375,2.2188 -0.781,0.9516 -1.81325,1.656 -3.09375,2.125 -1.26275,0.4624 -2.4175,0.5641 -3.4375,0.3124 -0.81438,-0.1858 -1.28763,-0.4972 -1.4375,-0.9062 -0.085,-0.2312 -0.3375,-1.4608 -0.78125,-3.7188 l 3.21875,-1.1562 c 0.0362,0.4303 0.09,0.7623 0.15625,1 0.2475,0.6758 0.717,0.8973 1.375,0.6562 0.96037,-0.3517 1.12925,-1.2964 0.5625,-2.8437 -0.362,-0.4927 -1.43338,-0.9622 -3.25,-1.4063 -1.74375,-0.4102 -2.70613,-0.8522 -2.90625,-1.3437 -0.16338,-0.6663 -0.37025,-1.7586 -0.59375,-3.25 -0.0787,-1.0403 0.37575,-2.0843 1.375,-3.1563 0.778,-0.8496 1.54775,-1.4386 2.3125,-1.7187 0.43575,-0.1596 0.87037,-0.2666 1.3125,-0.3125 z m -9.46875,3.9375 2.96875,17.0937 -4.0625,1.4376 -0.75,-5.3438 -2.375,-2.0938 1.3125,8.1563 -3.90625,1.5313 -3.1875,-17.4376 3.1875,-1.0937 3.65625,3.6563 -0.78125,-4.5938 3.9375,-1.3125 z m -16.5,6.5 c 1.55725,-0.10812 2.646,0.4578 3.28125,1.6875 0.4975,2.5648 1.135,6.0039 1.90625,10.3125 0.1655,0.9767 0.0837,1.9098 -0.25,2.7813 -0.4995,1.2586 -1.52388,2.1666 -3.03125,2.7187 -2.8625,1.0484 -4.72288,0.5318 -5.59375,-1.5313 -0.0788,-0.1631 -0.13613,-0.3387 -0.1875,-0.5312 -0.0638,-0.2264 -0.14438,-0.453 -0.21875,-0.6562 -0.0738,-0.2033 -0.27425,-1.0708 -0.59375,-2.625 -0.42999,-2.0133 -0.74224,-3.9269 -0.93749,-5.7188 -0.1795,-1.6439 0.38525,-3.1153 1.68749,-4.4375 0.847,-0.8865 1.602,-1.4339 2.28125,-1.625 0.42337,-0.1551 0.73875,-0.2469 0.9375,-0.2813 0.24125,-0.0428 0.49625,-0.0783 0.71875,-0.0937 z m -12.81249,4.125 c 0.31,-0.0319 0.5945,-0.0318 0.875,0 1.32712,0.1095 2.294,0.8323 2.875,2.1563 l 0.53125,2.6562 -3.375,1.3438 c -0.045,-0.1756 -0.1,-0.3476 -0.15625,-0.5 -0.31638,-0.8639 -0.7705,-1.1985 -1.3125,-1 -0.491126,0.1799 -0.774876,0.6106 -0.875001,1.2812 0.2095,1.3064 0.547,3.2747 1.000001,5.875 0.0675,0.3404 0.21512,0.5938 0.4375,0.7812 0.23925,0.1814 0.50762,0.2055 0.8125,0.0937 0.9315,-0.3412 1.18975,-1.2759 0.75,-2.8438 0.51262,-0.2261 1.6455,-0.7283 3.4375,-1.5 0.0575,0.2095 0.136,0.543 0.21875,1.0313 0.67987,4.1116 -0.48775,6.7207 -3.46875,7.8125 -1.45663,0.5335 -2.694376,0.5517 -3.718751,0.0625 -0.74675,-0.3604 -1.233,-0.8564 -1.46875,-1.5 -0.223375,-0.6098 -0.54925,-2.0741 -1,-4.4063 -0.493,-2.6048 -0.752375,-4.507 -0.78125,-5.6874 -0.01875,-1.2036 0.413375,-2.3158 1.3125,-3.375 0.816125,-0.9713 1.80275,-1.6782 2.9375,-2.0938 0.339621,-0.0956 0.658751,-0.1556 0.968751,-0.1875 z m 12.56249,0.3437 c -0.11875,0.005 -0.2395,0.0443 -0.375,0.0937 -0.32188,0.11788 -0.59,0.3611 -0.8125,0.75 -0.22875,0.3719 -0.319,0.7185 -0.28125,1.0312 l -0.0313,0.0313 c 0.0125,0.4392 0.17237,1.6073 0.53125,3.5313 0.33862,1.8161 0.56937,2.8566 0.65625,3.0937 0.19237,0.5251 0.52312,0.6861 1.03125,0.5 0.49125,-0.1799 0.83087,-0.4546 0.96875,-0.8125 0.11125,-0.2715 0.0925,-0.5272 0,-0.7812 -0.025,-0.0677 -0.0525,-0.1663 -0.125,-0.3126 l -1.21875,-7.0624 c -0.10125,-0.0399 -0.2255,-0.0674 -0.34375,-0.0626 z"
       id="rect5641-7-9-69-5-3-8"
       inkscape:connector-curvature="0" />
    <g
       transform="matrix(1.0142441,-0.32076126,0.31895773,1.0266271,-8.4743264,-17.358497)"
       style="font-size:40px;font-style:normal;font-weight:normal;line-height:125%;letter-spacing:0px;word-spacing:0px;fill:#000000;fill-opacity:1;stroke:none;font-family:Sans"
       id="flowRoot3516-3-8-1-3-6-65-5-6-1-2">
      <path
         d="m -31.6225,558.52748 -8.12,0.2 -0.72,-25.16 6.56,-0.12 0.28,14.88 8.16,-15 6.72,-0.16 -12.88,25.36"
         style="font-variant:normal;font-weight:800;font-stretch:condensed;text-align:center;line-height:88.99999857%;text-anchor:middle;font-family:Crickx;-inkscape-font-specification:Crickx Ultra-Bold Condensed"
         id="path9560"
         inkscape:connector-curvature="0" />
      <path
         d="m -7.18,543.08748 -2.72,6.44 3.2,0.24 -0.48,-6.68 m -5.44,11.2 -2.32,4.52 -7.44,0.08 c 8.186659,-15.25332 12.6799882,-23.86665 13.48,-25.84 l 7.44,-0.04 1.84,25.4 -6.4,0.2 -0.32,-4.2 -6.28,-0.12"
         style="font-variant:normal;font-weight:800;font-stretch:condensed;text-align:center;line-height:88.99999857%;text-anchor:middle;font-family:Crickx;-inkscape-font-specification:Crickx Ultra-Bold Condensed"
         id="path9562"
         inkscape:connector-curvature="0" />
      <path
         d="m 10.640625,558.76748 -6.88,-0.08 5.2,-25 c 4.213323,-0.15998 7.239986,-0.18665 9.08,-0.08 4.15998,-0.0267 6.239978,2.30668 6.24,7 -0.08002,0.96001 -0.293355,1.88001 -0.64,2.76 -0.853353,2.16001 -2.333352,3.98667 -4.44,5.48 l 4.44,10.12 -6.88,0.04 -2.48,-8.72 -2.12,0.36 -1.52,8.12 m 6.72,-17.76 c -1.5e-5,-1.09332 -0.613347,-1.63999 -1.84,-1.64 -0.08001,10e-6 -0.520012,0.08 -1.32,0.24 l -1.12,6 c 2.45332,-0.71999 3.879986,-2.25332 4.28,-4.6"
         style="font-variant:normal;font-weight:800;font-stretch:condensed;text-align:center;line-height:88.99999857%;text-anchor:middle;font-family:Crickx;-inkscape-font-specification:Crickx Ultra-Bold Condensed"
         id="path9564"
         inkscape:connector-curvature="0" />
      <path
         d="m 33.085625,558.88748 -5.68,0 3.6,-25.04 5.84,-0.24 -3.76,25.28"
         style="font-variant:normal;font-weight:800;font-stretch:condensed;text-align:center;line-height:88.99999857%;text-anchor:middle;font-family:Crickx;-inkscape-font-specification:Crickx Ultra-Bold Condensed"
         id="path9566"
         inkscape:connector-curvature="0" />
      <path
         d="m 52.35125,543.08748 -2.72,6.44 3.2,0.24 -0.48,-6.68 m -5.44,11.2 -2.32,4.52 -7.44,0.08 c 8.186659,-15.25332 12.679988,-23.86665 13.48,-25.84 l 7.44,-0.04 1.84,25.4 -6.4,0.2 -0.32,-4.2 -6.28,-0.12"
         style="font-variant:normal;font-weight:800;font-stretch:condensed;text-align:center;line-height:88.99999857%;text-anchor:middle;font-family:Crickx;-inkscape-font-specification:Crickx Ultra-Bold Condensed"
         id="path9568"
         inkscape:connector-curvature="0" />
      <path
         d="m 76.491875,540.56748 c -1.4e-5,-0.47999 -0.173347,-0.87999 -0.52,-1.2 -0.34668,-0.31999 -0.760013,-0.47998 -1.24,-0.48 l -1.32,0 -0.76,4.48 c 1.359988,-0.10666 2.399987,-0.59999 3.12,-1.48 0.479986,-0.53332 0.719986,-0.97332 0.72,-1.32 m -5.44,12 c 0.666657,0.0533 1.666656,0.0267 3,-0.08 1.066654,-0.26666 1.599987,-0.97333 1.6,-2.12 -1.3e-5,-0.32 -0.18668,-0.65333 -0.56,-1 -0.693346,-0.58666 -1.813344,-0.83999 -3.36,-0.76 l -0.68,3.96 m 8.2,-19.12 c 1.226648,0.26669 2.239981,0.89335 3.04,1.88 0.906646,1.12002 1.359979,2.49335 1.36,4.12 -0.08002,0.72001 -0.266688,1.41335 -0.56,2.08 -0.72002,1.65334 -1.960019,3.10668 -3.72,4.36 2.31998,1.54667 3.573313,3.84 3.76,6.88 -2.1e-5,1.70667 -0.80002,3.17333 -2.4,4.4 -0.986684,0.72 -2.080016,1.26666 -3.28,1.64 l -14.16,0 4.6,-25.16 6.44,-0.08 4.92,-0.12"
         style="font-variant:normal;font-weight:800;font-stretch:condensed;text-align:center;line-height:88.99999857%;text-anchor:middle;font-family:Crickx;-inkscape-font-specification:Crickx Ultra-Bold Condensed"
         id="path9570"
         inkscape:connector-curvature="0" />
      <path
         d="m 98.15,558.80748 -12.28,0.32 4.32,-25.04 6.76,-0.16 -3.12,18.76 5.56,-0.12 -1.24,6.24"
         style="font-variant:normal;font-weight:800;font-stretch:condensed;text-align:center;line-height:88.99999857%;text-anchor:middle;font-family:Crickx;-inkscape-font-specification:Crickx Ultra-Bold Condensed"
         id="path9572"
         inkscape:connector-curvature="0" />
      <path
         d="m 116.6,538.72748 -5.36,0.2 -0.72,4.64 5.32,-0.16 -0.8,4.96 -5.48,0.16 -0.52,4.64 5.24,-0.12 -1.08,5.56 -11,0.12 c 0.66666,-3.62667 2,-12.03999 4,-25.24 l 11.04,-0.08 -0.64,5.32"
         style="font-variant:normal;font-weight:800;font-stretch:condensed;text-align:center;line-height:88.99999857%;text-anchor:middle;font-family:Crickx;-inkscape-font-specification:Crickx Ultra-Bold Condensed"
         id="path9574"
         inkscape:connector-curvature="0" />
    </g>
  </g>
</svg>
