<?xml version="1.0" encoding="UTF-8" standalone="no"?>
<!-- Created with Inkscape (http://www.inkscape.org/) -->

<svg
   xmlns:dc="http://purl.org/dc/elements/1.1/"
   xmlns:cc="http://creativecommons.org/ns#"
   xmlns:rdf="http://www.w3.org/1999/02/22-rdf-syntax-ns#"
   xmlns:svg="http://www.w3.org/2000/svg"
   xmlns="http://www.w3.org/2000/svg"
   xmlns:sodipodi="http://sodipodi.sourceforge.net/DTD/sodipodi-0.dtd"
   xmlns:inkscape="http://www.inkscape.org/namespaces/inkscape"
   width="234.83662"
   height="96.82003"
   id="svg3778"
   version="1.1"
   inkscape:version="0.48.4 r9939"
   sodipodi:docname="New document 1">
  <defs
     id="defs3780" />
  <sodipodi:namedview
     id="base"
     pagecolor="#ffffff"
     bordercolor="#666666"
     borderopacity="1.0"
     inkscape:pageopacity="0.0"
     inkscape:pageshadow="2"
     inkscape:zoom="0.2023702"
     inkscape:cx="514.74173"
     inkscape:cy="621.6952"
     inkscape:document-units="px"
     inkscape:current-layer="layer1"
     showgrid="false"
     fit-margin-top="0"
     fit-margin-left="0"
     fit-margin-right="0"
     fit-margin-bottom="0"
     inkscape:window-width="1280"
     inkscape:window-height="745"
     inkscape:window-x="0"
     inkscape:window-y="27"
     inkscape:window-maximized="1" />
  <metadata
     id="metadata3783">
    <rdf:RDF>
      <cc:Work
         rdf:about="">
        <dc:format>image/svg+xml</dc:format>
        <dc:type
           rdf:resource="http://purl.org/dc/dcmitype/StillImage" />
        <dc:title></dc:title>
      </cc:Work>
    </rdf:RDF>
  </metadata>
  <g
     inkscape:label="Layer 1"
     inkscape:groupmode="layer"
     id="layer1"
     transform="translate(-327.04882,-333.21088)">
    <g
       transform="matrix(1.25,0,0,-1.25,-157.10573,809.8277)"
       style="display:inline"
       id="g3766">
      <path
         inkscape:connector-curvature="0"
         id="rect5641-7-9-6-9-1-8-4-0-6-3"
         d="m 393.5947,381.29346 c -3.47989,0 -6.27106,-2.81725 -6.27106,-6.2973 l 0,-38.15103 187.8693,0 0,38.15103 c 0,3.48005 -2.81741,6.2973 -6.2973,6.2973 l -175.30094,0 z m 138.17314,-11.38753 c 4.21782,-8e-5 6.38378,-1.54955 6.53344,-4.64429 0.0252,-0.24955 0.0252,-0.5126 0,-0.78717 -0.0252,-0.32443 -0.0262,-0.61889 -0.0262,-0.91839 0,-0.29942 -0.17412,-1.5546 -0.49854,-3.72582 -0.39935,-2.82018 -0.89663,-5.42457 -1.49561,-7.84542 -0.54912,-2.22118 -1.98207,-3.8872 -4.30315,-4.98536 -1.52237,-0.74871 -2.75255,-1.09816 -3.7259,-1.02327 -0.62385,0 -1.08985,0.0288 -1.36441,0.0787 -2.67047,0.47423 -4.13355,1.81698 -4.40811,3.98828 0.574,3.56889 1.39202,8.33527 2.4402,14.30015 0.24959,1.34762 0.77824,2.49012 1.6268,3.46352 1.24792,1.39758 3.00025,2.09901 5.22151,2.09909 z m -88.73938,-0.47238 -4.14572,-24.19202 -4.69673,0.10495 -2.99121,6.48093 -1.15451,-6.32358 -5.77252,0.18371 4.27692,23.61486 5.98243,-0.0787 -1.57433,-7.29428 2.0991,-3.85713 2.17781,11.23017 5.79876,0.13115 z m 77.11562,0 -4.14571,-24.19202 -4.69674,0.10495 -2.99121,6.48093 -1.15451,-6.32358 -5.77252,0.18371 4.27692,23.61486 5.98243,-0.0787 -1.57433,-7.29428 2.0991,-3.85713 2.17782,11.23017 5.79875,0.13115 z m -100.31065,-0.0787 -2.62387,-18.20967 4.7492,0.13115 -0.89211,-5.32642 -14.5625,-0.36734 0.70845,5.19527 3.75214,0.10495 2.80754,18.28844 6.06115,0.18362 z m 58.61732,0 -2.62388,-18.20967 4.74921,0.13115 -0.89211,-5.32642 -14.5625,-0.36734 0.70845,5.19527 3.75214,0.10495 2.80754,18.28844 6.06115,0.18362 z m -10.73164,-0.0525 c -7.66192,-14.27563 -11.87208,-22.31896 -12.62083,-24.16583 l -6.95326,-0.0526 -1.73176,23.77237 5.98243,0.18363 0.31486,-3.93581 5.87748,-0.10496 2.17781,4.2244 6.95327,0.0787 z m 25.26789,-0.0787 c 1.86064,0 3.41261,-0.39455 4.61802,-1.2069 0.96957,-0.62897 1.44313,-1.23401 1.44313,-1.83679 0,-0.34064 -0.23678,-2.10305 -0.73469,-5.24775 l -4.77545,0.0526 c 0.15723,0.57649 0.26239,1.02368 0.28863,1.36441 0,0.99573 -0.49979,1.49556 -1.46937,1.49556 -1.41509,0 -2.12534,-1.13116 -2.12534,-3.41103 0.23585,-0.81235 1.44586,-1.94351 3.59471,-3.38484 2.07024,-1.36265 3.12241,-2.4148 3.14865,-3.14865 -0.10496,-0.94333 -0.36787,-2.44276 -0.78716,-4.48678 -0.39306,-1.38884 -1.49792,-2.52009 -3.30608,-3.43723 -1.4151,-0.73376 -2.67771,-1.10202 -3.80462,-1.10211 -1.28402,9e-5 -2.49403,0.28943 -3.5947,0.8922 -1.25778,0.68129 -2.02069,1.62832 -2.28277,2.80751 -0.15723,0.81235 -0.13099,2.02243 0.0525,3.64714 l 4.59178,0.15751 c 0.0525,-1.28406 0.63111,-1.99431 1.73176,-2.12538 0.60276,0 1.12889,0.23678 1.57432,0.73469 0.41931,0.47171 0.62973,0.9189 0.62973,1.31193 0,0.86483 -0.55248,1.65393 -1.67928,2.36149 -1.12679,0.70756 -2.25788,1.39153 -3.35856,2.07282 -1.28401,1.04829 -2.04692,2.36358 -2.309,3.93589 0.13098,1.44124 0.55196,3.07224 1.25946,4.88032 0.31444,0.86483 1.07725,1.65401 2.28276,2.38777 1.46748,0.86474 3.12484,1.28565 5.0116,1.28565 z m 57.43658,-0.52477 c 2.14632,8e-5 3.75602,-0.55618 4.85412,-1.67928 0.79866,-0.82352 1.20706,-1.7017 1.20706,-2.65007 0,-0.8985 -0.26305,-2.97409 -0.78724,-6.21854 -0.59892,-3.61884 -1.15509,-6.19309 -1.67924,-7.74046 -0.54912,-1.57231 -1.66017,-2.83001 -3.33232,-3.77838 -1.52247,-0.87348 -3.12954,-1.31194 -4.80168,-1.31194 -0.97335,0.0749 -1.79389,0.28036 -2.49268,0.62973 -1.67214,0.77373 -2.5778,2.14914 -2.70259,4.14572 l 0.55101,3.7259 5.06408,0.13124 c -0.0252,-0.24963 -0.0262,-0.48389 -0.0262,-0.70849 0,-1.27281 0.38214,-1.91539 1.18074,-1.91539 0.72377,0 1.30879,0.43586 1.758,1.25946 0.34939,1.79691 0.84667,4.48762 1.4956,8.08153 0.0745,0.47414 0.0157,0.8838 -0.18367,1.23318 -0.2246,0.34937 -0.54786,0.52477 -0.99707,0.52477 -1.3726,0 -2.1606,-1.13863 -2.33525,-3.38484 -0.77372,-0.0498 -2.49981,-0.13879 -5.19526,-0.28858 0.0252,0.2995 0.11135,0.79556 0.23614,1.46937 1.07317,5.6653 3.79402,8.47515 8.18649,8.47507 z m -18.70822,-4.67041 c -0.72377,0 -1.25116,-0.2042 -1.60056,-0.60354 -0.27456,-0.2995 -0.41982,-0.62267 -0.41982,-0.99707 0,-0.0998 0.0273,-0.27389 0.0525,-0.49849 l -1.758,-9.73461 c 0.22461,-0.19967 0.51901,-0.28859 0.91836,-0.28867 0.47419,8e-5 0.9427,0.2042 1.41689,0.60353 0.47419,0.3744 0.76607,0.75652 0.86588,1.1807 l 0.0525,0 c 0.19973,0.57407 0.52162,2.21002 0.97083,4.88049 0.42423,2.52068 0.62973,3.95369 0.62973,4.30315 0,0.77365 -0.37952,1.15451 -1.12827,1.15451 z m -78.6637,-3.25361 0.44606,-6.2449 2.54515,6.00871 -2.99121,0.23619 z"
         style="fill:#000000;fill-opacity:1;fill-rule:nonzero;stroke:none" />
      <g
         id="flowRoot3516-3-8-26-18-2"
         style="font-size:40px;font-style:normal;font-weight:normal;line-height:125%;letter-spacing:0px;word-spacing:0px;fill:#000000;fill-opacity:1;stroke:none;font-family:Sans"
         transform="matrix(0.97466228,0,0,-0.97466228,444.3419,848.7979)">
        <path
           inkscape:connector-curvature="0"
           id="path9676"
           style="font-variant:normal;font-weight:800;font-stretch:condensed;text-align:center;line-height:88.99999857%;text-anchor:middle;font-family:Crickx;-inkscape-font-specification:Crickx Ultra-Bold Condensed"
           d="m -31.6225,558.52748 -8.12,0.2 -0.72,-25.16 6.56,-0.12 0.28,14.88 8.16,-15 6.72,-0.16 -12.88,25.36" />
        <path
           inkscape:connector-curvature="0"
           id="path9678"
           style="font-variant:normal;font-weight:800;font-stretch:condensed;text-align:center;line-height:88.99999857%;text-anchor:middle;font-family:Crickx;-inkscape-font-specification:Crickx Ultra-Bold Condensed"
           d="m -7.18,543.08748 -2.72,6.44 3.2,0.24 -0.48,-6.68 m -5.44,11.2 -2.32,4.52 -7.44,0.08 c 8.186659,-15.25332 12.6799882,-23.86665 13.48,-25.84 l 7.44,-0.04 1.84,25.4 -6.4,0.2 -0.32,-4.2 -6.28,-0.12" />
        <path
           inkscape:connector-curvature="0"
           id="path9680"
           style="font-variant:normal;font-weight:800;font-stretch:condensed;text-align:center;line-height:88.99999857%;text-anchor:middle;font-family:Crickx;-inkscape-font-specification:Crickx Ultra-Bold Condensed"
           d="m 10.640625,558.76748 -6.88,-0.08 5.2,-25 c 4.213323,-0.15998 7.239986,-0.18665 9.08,-0.08 4.15998,-0.0267 6.239978,2.30668 6.24,7 -0.08002,0.96001 -0.293355,1.88001 -0.64,2.76 -0.853353,2.16001 -2.333352,3.98667 -4.44,5.48 l 4.44,10.12 -6.88,0.04 -2.48,-8.72 -2.12,0.36 -1.52,8.12 m 6.72,-17.76 c -1.5e-5,-1.09332 -0.613347,-1.63999 -1.84,-1.64 -0.08001,10e-6 -0.520012,0.08 -1.32,0.24 l -1.12,6 c 2.45332,-0.71999 3.879986,-2.25332 4.28,-4.6" />
        <path
           inkscape:connector-curvature="0"
           id="path9682"
           style="font-variant:normal;font-weight:800;font-stretch:condensed;text-align:center;line-height:88.99999857%;text-anchor:middle;font-family:Crickx;-inkscape-font-specification:Crickx Ultra-Bold Condensed"
           d="m 33.085625,558.88748 -5.68,0 3.6,-25.04 5.84,-0.24 -3.76,25.28" />
        <path
           inkscape:connector-curvature="0"
           id="path9684"
           style="font-variant:normal;font-weight:800;font-stretch:condensed;text-align:center;line-height:88.99999857%;text-anchor:middle;font-family:Crickx;-inkscape-font-specification:Crickx Ultra-Bold Condensed"
           d="m 52.35125,543.08748 -2.72,6.44 3.2,0.24 -0.48,-6.68 m -5.44,11.2 -2.32,4.52 -7.44,0.08 c 8.186659,-15.25332 12.679988,-23.86665 13.48,-25.84 l 7.44,-0.04 1.84,25.4 -6.4,0.2 -0.32,-4.2 -6.28,-0.12" />
        <path
           inkscape:connector-curvature="0"
           id="path9686"
           style="font-variant:normal;font-weight:800;font-stretch:condensed;text-align:center;line-height:88.99999857%;text-anchor:middle;font-family:Crickx;-inkscape-font-specification:Crickx Ultra-Bold Condensed"
           d="m 76.491875,540.56748 c -1.4e-5,-0.47999 -0.173347,-0.87999 -0.52,-1.2 -0.34668,-0.31999 -0.760013,-0.47998 -1.24,-0.48 l -1.32,0 -0.76,4.48 c 1.359988,-0.10666 2.399987,-0.59999 3.12,-1.48 0.479986,-0.53332 0.719986,-0.97332 0.72,-1.32 m -5.44,12 c 0.666657,0.0533 1.666656,0.0267 3,-0.08 1.066654,-0.26666 1.599987,-0.97333 1.6,-2.12 -1.3e-5,-0.32 -0.18668,-0.65333 -0.56,-1 -0.693346,-0.58666 -1.813344,-0.83999 -3.36,-0.76 l -0.68,3.96 m 8.2,-19.12 c 1.226648,0.26669 2.239981,0.89335 3.04,1.88 0.906646,1.12002 1.359979,2.49335 1.36,4.12 -0.08002,0.72001 -0.266688,1.41335 -0.56,2.08 -0.72002,1.65334 -1.960019,3.10668 -3.72,4.36 2.31998,1.54667 3.573313,3.84 3.76,6.88 -2.1e-5,1.70667 -0.80002,3.17333 -2.4,4.4 -0.986684,0.72 -2.080016,1.26666 -3.28,1.64 l -14.16,0 4.6,-25.16 6.44,-0.08 4.92,-0.12" />
        <path
           inkscape:connector-curvature="0"
           id="path9688"
           style="font-variant:normal;font-weight:800;font-stretch:condensed;text-align:center;line-height:88.99999857%;text-anchor:middle;font-family:Crickx;-inkscape-font-specification:Crickx Ultra-Bold Condensed"
           d="m 98.15,558.80748 -12.28,0.32 4.32,-25.04 6.76,-0.16 -3.12,18.76 5.56,-0.12 -1.24,6.24" />
        <path
           inkscape:connector-curvature="0"
           id="path9690"
           style="font-variant:normal;font-weight:800;font-stretch:condensed;text-align:center;line-height:88.99999857%;text-anchor:middle;font-family:Crickx;-inkscape-font-specification:Crickx Ultra-Bold Condensed"
           d="m 116.6,538.72748 -5.36,0.2 -0.72,4.64 5.32,-0.16 -0.8,4.96 -5.48,0.16 -0.52,4.64 5.24,-0.12 -1.08,5.56 -11,0.12 c 0.66666,-3.62667 2,-12.03999 4,-25.24 l 11.04,-0.08 -0.64,5.32" />
      </g>
    </g>
  </g>
</svg>
