<?xml version="1.0" encoding="UTF-8" standalone="no"?>
<!-- Created with Inkscape (http://www.inkscape.org/) -->

<svg
   xmlns:dc="http://purl.org/dc/elements/1.1/"
   xmlns:cc="http://creativecommons.org/ns#"
   xmlns:rdf="http://www.w3.org/1999/02/22-rdf-syntax-ns#"
   xmlns:svg="http://www.w3.org/2000/svg"
   xmlns="http://www.w3.org/2000/svg"
   xmlns:sodipodi="http://sodipodi.sourceforge.net/DTD/sodipodi-0.dtd"
   xmlns:inkscape="http://www.inkscape.org/namespaces/inkscape"
   id="svg2"
   version="1.1"
   inkscape:version="0.48.3.1 r9886"
   width="229.175"
   height="226.8125"
   xml:space="preserve"
   sodipodi:docname="Regions-regios-NL-noir-blanc.eps"><metadata
     id="metadata8"><rdf:RDF><cc:Work
         rdf:about=""><dc:format>image/svg+xml</dc:format><dc:type
           rdf:resource="http://purl.org/dc/dcmitype/StillImage" /><dc:title></dc:title></cc:Work></rdf:RDF></metadata><defs
     id="defs6" /><sodipodi:namedview
     pagecolor="#ffffff"
     bordercolor="#666666"
     borderopacity="1"
     objecttolerance="10"
     gridtolerance="10"
     guidetolerance="10"
     inkscape:pageopacity="0"
     inkscape:pageshadow="2"
     inkscape:window-width="1375"
     inkscape:window-height="876"
     id="namedview4"
     showgrid="false"
     inkscape:zoom="1.040507"
     inkscape:cx="114.5875"
     inkscape:cy="113.40625"
     inkscape:window-x="65"
     inkscape:window-y="24"
     inkscape:window-maximized="1"
     inkscape:current-layer="g12" /><g
     id="g10"
     inkscape:groupmode="layer"
     inkscape:label="ink_ext_XXXXXX"
     transform="matrix(1.25,0,0,-1.25,0,226.8125)"><g
       id="g12"
       transform="scale(0.1,0.1)"><path
         d="m 1.25,1.25 1830.89,0 0,1811.95 -1830.89,0 0,-1811.95 z"
         style="fill:#ffffff;fill-opacity:1;fill-rule:nonzero;stroke:none"
         id="path14" /><path
         d="m 1.25,1.25 1830.89,0 0,1811.95 -1830.89,0 0,-1811.95 z"
         style="fill:none;stroke:#211c1d;stroke-opacity:1;stroke-width:2.5;stroke-linecap:butt;stroke-linejoin:miter;stroke-miterlimit:10;stroke-dasharray:none"
         id="path16" /><path
         d="m 589.414,1239.91 c -70.723,0 -141.012,-53.29 -141.012,-142.47 0,-86.45 80.043,-140.206 149.625,-140.206 76.535,0 113.489,23.973 178.004,10.926 50.438,-10.156 77.699,-34.824 91.235,-47.773 6.472,-6.192 14.675,-6.914 20.316,-3.203 5.602,3.711 9.383,10.703 5.602,27.414 -8.813,38.953 -29.567,82.492 -53.641,119.672 -47.301,73.06 -143.281,175.64 -250.129,175.64"
         style="fill:#100f0d;fill-opacity:1;fill-rule:nonzero;stroke:none"
         id="path18" /><path
         d="m 1244,1239.91 c 70.71,0 141,-53.29 141,-142.47 0,-86.45 -80.03,-140.206 -149.63,-140.206 -76.54,0 -113.48,23.973 -177.98,10.926 -50.45,-10.156 -77.718,-34.824 -91.242,-47.773 -6.476,-6.192 -14.699,-6.914 -20.312,-3.203 -5.598,3.711 -9.406,10.703 -5.598,27.414 8.809,38.953 29.563,82.492 53.633,119.672 47.289,73.06 143.239,175.64 250.129,175.64"
         style="fill:#100f0d;fill-opacity:1;fill-rule:nonzero;stroke:none"
         id="path20" /><path
         d="m 1007.23,1480.75 c -39.492,0 -72.195,-16.6 -90.531,-40.85 -18.332,24.25 -51.015,40.85 -90.527,40.85 -71.5,0 -137.149,-56.95 -137.149,-139.58 0,-36.19 14.547,-63.71 27.747,-82.93 15.023,-21.88 34.785,-40.88 65.843,-67.85 45.075,-39.12 82.153,-77.31 117.547,-152.03 2.809,-5.96 8.817,-12.7 16.539,-12.7 7.742,0 13.727,6.74 16.547,12.7 35.41,74.72 72.484,112.91 117.544,152.03 31.07,26.97 50.84,45.97 65.86,67.85 13.2,19.22 27.72,46.74 27.72,82.93 0,82.63 -65.62,139.58 -137.14,139.58"
         style="fill:#100f0d;fill-opacity:1;fill-rule:nonzero;stroke:none"
         id="path22" /><path
         d="m 1003.91,1439.9 c -47.383,0 -76.902,-35.69 -87.199,-61.19 -10.332,25.5 -39.832,61.19 -87.219,61.19 -54.554,0 -98.687,-45.04 -98.687,-99.59 0,-20.61 7.047,-39.57 19.675,-56.84 49.657,-67.89 117.11,-89.67 166.231,-196.03 49.113,106.36 116.559,128.14 166.239,196.03 12.6,17.27 19.63,36.23 19.63,56.84 0,54.55 -44.12,99.59 -98.67,99.59"
         style="fill:#ffffff;fill-opacity:1;fill-rule:nonzero;stroke:none"
         id="path24" /><path
         d="m 610.844,642.082 c 7.574,0 13.023,5.316 13.023,13.02 0,7.847 -5.98,13.16 -13.691,13.16 l -25.379,0 0,-26.18 26.047,0 z m -26.047,41.469 21.125,0 c 4.121,1.187 7.98,5.84 8.109,10.898 0.133,6.903 -4.914,11.949 -12.093,11.949 l -17.141,0 0,-22.847 z M 574.43,625.988 c -4.524,0 -6.516,3.071 -6.516,6.391 l 0,83.73 c 0,3.321 1.992,6.5 6.516,6.5 l 27.379,0 c 17.406,0 29.105,-11.148 29.105,-27.371 0,-5.449 -3.059,-11.297 -6.781,-14.75 9.699,-3.59 16.746,-14.359 16.746,-25.508 0,-17.55 -12.094,-28.992 -29.641,-28.992 l -36.808,0"
         style="fill:#100f0d;fill-opacity:1;fill-rule:nonzero;stroke:none"
         id="path26" /><path
         d="m 680.449,706.398 0,-27.238 19.801,0 c 9.84,0 15.02,5.309 15.02,13.16 0,8.371 -5.321,14.078 -14.219,14.078 l -20.602,0 z m 53.692,-71.636 c 2.925,-4.25 0.132,-8.774 -4.918,-8.774 l -5.45,0 c -2.523,0 -5.179,1.473 -6.644,3.602 l -21.66,33.75 -15.02,0 0,-30.961 c 0,-3.32 -1.992,-6.391 -6.511,-6.391 l -3.856,0 c -4.52,0 -6.644,3.071 -6.644,6.391 l 0,83.73 c 0,3.321 2.124,6.5 6.644,6.5 l 31.102,0 c 18.871,0 31.496,-12.347 31.496,-29.757 0,-14.082 -8.774,-24.063 -19.535,-27.383 l 20.996,-30.707"
         style="fill:#100f0d;fill-opacity:1;fill-rule:nonzero;stroke:none"
         id="path28" /><path
         d="m 757.895,658.961 0,57.148 c 0,3.321 1.992,6.5 6.515,6.5 l 3.852,0 c 4.515,0 6.511,-3.179 6.511,-6.5 l 0,-57.418 c 0,-11.293 7.446,-17.812 18.34,-17.812 11.032,0 18.211,6.519 18.211,17.812 l 0,57.418 c 0,3.321 1.992,6.5 6.512,6.5 l 3.723,0 c 4.515,0 6.507,-3.179 6.507,-6.5 l 0,-57.148 c 0,-20.992 -13.421,-34.02 -34.953,-34.02 -21.797,0 -35.218,12.891 -35.218,34.02"
         style="fill:#100f0d;fill-opacity:1;fill-rule:nonzero;stroke:none"
         id="path30" /><path
         d="m 924.918,654.84 c 0,-15.16 -13.824,-29.899 -36.152,-29.899 -21.399,0 -37.211,11.289 -37.614,33.481 0,3.59 2.395,6.519 6.25,6.519 l 4.383,0 c 3.723,0 6.512,-2.269 6.777,-6.25 0.797,-11.953 8.376,-17.543 20.204,-17.543 11.429,0 18.605,5.981 18.605,13.293 0,5.707 -3.324,9.43 -11.828,11.438 -5.051,1.191 -10.5,2.652 -16.078,4.242 -11.168,3.199 -24.192,9.699 -24.192,25.52 0,17.941 14.489,28.05 32.957,28.05 17.547,0 32.036,-10.769 33.762,-26.992 0.395,-3.847 -1.859,-6.777 -6.383,-6.777 l -3.851,0 c -3.723,0 -6.383,2.527 -6.778,5.988 -0.8,7.969 -7.839,12.09 -17.011,12.09 -9.168,0 -15.817,-4.918 -15.684,-11.969 0.133,-5.84 6.113,-8.633 12.625,-10.359 5.184,-1.453 9.57,-2.531 15.024,-3.863 17.273,-3.977 24.984,-13.02 24.984,-26.969"
         style="fill:#100f0d;fill-opacity:1;fill-rule:nonzero;stroke:none"
         id="path32" /><path
         d="m 1015.92,654.84 c 0,-15.16 -13.83,-29.899 -36.15,-29.899 -21.395,0 -37.208,11.289 -37.618,33.481 0,3.59 2.403,6.519 6.25,6.519 l 4.395,0 c 3.711,0 6.504,-2.269 6.777,-6.25 0.793,-11.953 8.371,-17.543 20.196,-17.543 11.425,0 18.613,5.981 18.613,13.293 0,5.707 -3.328,9.43 -11.836,11.438 -5.047,1.191 -10.496,2.652 -16.074,4.242 -11.172,3.199 -24.2,9.699 -24.2,25.52 0,17.941 14.493,28.05 32.969,28.05 17.539,0 32.028,-10.769 33.748,-26.992 0.4,-3.847 -1.85,-6.777 -6.37,-6.777 l -3.86,0 c -3.713,0 -6.377,2.527 -6.78,5.988 -0.8,7.969 -7.832,12.09 -17.011,12.09 -9.16,0 -15.809,-4.918 -15.684,-11.969 0.137,-5.84 6.113,-8.633 12.637,-10.359 5.176,-1.453 9.57,-2.531 15.019,-3.863 17.269,-3.977 24.979,-13.02 24.979,-26.969"
         style="fill:#100f0d;fill-opacity:1;fill-rule:nonzero;stroke:none"
         id="path34" /><path
         d="m 1055.76,706.398 0,-22.316 29.91,0 c 3.71,0 6.64,-2.391 6.64,-6.512 l 0,-3.199 c 0,-4.121 -2.93,-6.5 -6.64,-6.5 l -29.91,0 0,-25.66 41.33,0 c 3.99,0 6.65,-2.922 6.65,-6.371 l 0,-3.461 c 0,-3.59 -2.66,-6.391 -6.65,-6.391 l -51.56,0 c -4.53,0 -6.52,2.934 -6.52,6.391 l 0,83.73 c 0,3.461 1.99,6.5 6.52,6.5 l 49.17,0 c 3.45,0 6.38,-2.379 6.38,-6.5 l 0,-3.187 c 0,-4 -2.93,-6.524 -6.38,-6.524 l -38.94,0"
         style="fill:#100f0d;fill-opacity:1;fill-rule:nonzero;stroke:none"
         id="path36" /><path
         d="m 1131.34,625.988 c -4.52,0 -6.37,3.071 -6.37,6.391 l 0,83.73 c 0,3.321 2.12,6.5 6.37,6.5 l 3.86,0 c 4.26,0 6.38,-3.179 6.38,-6.5 l 0,-73.769 38.27,0 c 3.33,0 6.39,-1.988 6.39,-6.379 l 0,-3.582 c 0,-4.391 -3.06,-6.391 -6.39,-6.391 l -48.51,0"
         style="fill:#100f0d;fill-opacity:1;fill-rule:nonzero;stroke:none"
         id="path38" /><path
         d="m 1270.2,654.84 c 0,-15.16 -13.82,-29.899 -36.15,-29.899 -21.39,0 -37.21,11.289 -37.61,33.481 0,3.59 2.39,6.519 6.24,6.519 l 4.4,0 c 3.72,0 6.5,-2.269 6.77,-6.25 0.8,-11.953 8.38,-17.543 20.2,-17.543 11.43,0 18.61,5.981 18.61,13.293 0,5.707 -3.32,9.43 -11.83,11.438 -5.04,1.191 -10.49,2.652 -16.08,4.242 -11.17,3.199 -24.19,9.699 -24.19,25.52 0,17.941 14.48,28.05 32.96,28.05 17.54,0 32.03,-10.769 33.76,-26.992 0.4,-3.847 -1.86,-6.777 -6.38,-6.777 l -3.85,0 c -3.72,0 -6.38,2.527 -6.78,5.988 -0.79,7.969 -7.84,12.09 -17.01,12.09 -9.17,0 -15.81,-4.918 -15.69,-11.969 0.13,-5.84 6.12,-8.633 12.63,-10.359 5.18,-1.453 9.57,-2.531 15.02,-3.863 17.28,-3.977 24.98,-13.02 24.98,-26.969"
         style="fill:#100f0d;fill-opacity:1;fill-rule:nonzero;stroke:none"
         id="path40" /><path
         d="m 330.383,569.98 c 0,3.321 1.988,6.5 6.512,6.5 l 3.718,0 c 4.52,0 6.649,-3.179 6.649,-6.5 l 0,-33.89 33.621,0 0,33.89 c 0,3.321 1.992,6.5 6.515,6.5 l 3.852,0 c 4.52,0 6.516,-3.179 6.516,-6.5 l 0,-83.73 c 0,-3.32 -1.996,-6.391 -6.516,-6.391 l -3.852,0 c -4.523,0 -6.515,3.071 -6.515,6.391 l 0,33.609 -33.621,0 0,-33.609 c 0,-3.32 -2.129,-6.391 -6.649,-6.391 l -3.718,0 c -4.524,0 -6.512,3.071 -6.512,6.391 l 0,83.73"
         style="fill:#100f0d;fill-opacity:1;fill-rule:nonzero;stroke:none"
         id="path42" /><path
         d="m 437.73,528.102 c 0,-19.141 8.637,-33.223 23.254,-33.223 14.621,0 23.258,14.082 23.258,33.223 0,18.886 -8.898,33.769 -23.258,33.769 -14.351,0 -23.254,-14.883 -23.254,-33.769 z m -16.75,0 c 0,28.707 16.086,49.457 40.004,49.457 23.922,0 40.008,-20.75 40.008,-49.457 0,-28.692 -15.816,-49.293 -40.008,-49.293 -24.187,0 -40.004,20.601 -40.004,49.293"
         style="fill:#100f0d;fill-opacity:1;fill-rule:nonzero;stroke:none"
         id="path44" /><path
         d="m 534.98,528.102 c 0,-19.141 8.637,-33.223 23.258,-33.223 14.617,0 23.254,14.082 23.254,33.223 0,18.886 -8.898,33.769 -23.254,33.769 -14.355,0 -23.258,-14.883 -23.258,-33.769 z m -16.75,0 c 0,28.707 16.086,49.457 40.008,49.457 23.918,0 40.004,-20.75 40.004,-49.457 0,-28.692 -15.816,-49.293 -40.004,-49.293 -24.191,0 -40.008,20.601 -40.008,49.293"
         style="fill:#100f0d;fill-opacity:1;fill-rule:nonzero;stroke:none"
         id="path46" /><path
         d="m 638.07,486.25 c 0,-3.32 -2.254,-6.391 -6.508,-6.391 l -3.718,0 c -4.254,0 -6.516,3.071 -6.516,6.391 l 0,83.73 c 0,3.45 2.262,6.5 6.516,6.5 l 50.5,0 c 4.117,0 6.644,-2.242 6.644,-6.5 l 0,-3.191 c 0,-4.25 -2.66,-6.519 -6.644,-6.519 l -40.274,0 0,-22.321 26.985,0 c 3.851,0 6.511,-2.129 6.511,-6.527 l 0,-3.184 c 0,-4.258 -2.921,-6.5 -6.511,-6.5 l -26.985,0 0,-35.488"
         style="fill:#100f0d;fill-opacity:1;fill-rule:nonzero;stroke:none"
         id="path48" /><path
         d="m 730.543,495.949 c 18.07,0 29.769,13.422 29.769,32.039 0,19.25 -11.296,32.422 -29.906,32.422 l -13.023,0 0,-64.461 13.16,0 z m -23.395,-16.09 c -4.382,0 -6.246,3.071 -6.246,6.391 l 0,83.73 c 0,3.321 1.993,6.5 6.246,6.5 l 22.731,0 c 28.172,0 46.914,-19.14 46.914,-48.492 0,-28.578 -19.805,-48.129 -46.652,-48.129 l -22.993,0"
         style="fill:#100f0d;fill-opacity:1;fill-rule:nonzero;stroke:none"
         id="path50" /><path
         d="m 867.926,508.711 c 0,-15.16 -13.824,-29.902 -36.153,-29.902 -21.398,0 -37.211,11.281 -37.613,33.492 0,3.578 2.395,6.508 6.25,6.508 l 4.387,0 c 3.719,0 6.508,-2.27 6.773,-6.25 0.797,-11.957 8.375,-17.539 20.203,-17.539 11.43,0 18.61,5.968 18.61,13.281 0,5.719 -3.328,9.449 -11.832,11.437 -5.051,1.192 -10.5,2.66 -16.078,4.242 -11.168,3.2 -24.192,9.711 -24.192,25.532 0,17.949 14.489,28.047 32.957,28.047 17.547,0 32.032,-10.77 33.762,-27 0.395,-3.84 -1.859,-6.77 -6.383,-6.77 l -3.851,0 c -3.719,0 -6.383,2.531 -6.778,5.992 -0.8,7.969 -7.843,12.09 -17.011,12.09 -9.168,0 -15.817,-4.922 -15.684,-11.973 0.133,-5.839 6.113,-8.628 12.629,-10.347 5.18,-1.469 9.566,-2.539 15.016,-3.871 17.277,-3.981 24.988,-13.032 24.988,-26.969"
         style="fill:#100f0d;fill-opacity:1;fill-rule:nonzero;stroke:none"
         id="path52" /><path
         d="m 880.922,560.27 c -3.719,0 -6.379,2.519 -6.379,6.519 l 0,3.191 c 0,3.981 2.66,6.5 6.379,6.5 l 62.324,0 c 3.731,0 6.387,-2.519 6.387,-6.5 l 0,-3.191 c 0,-4 -2.656,-6.519 -6.387,-6.519 l -22.851,0 0,-74.02 c 0,-3.461 -2.391,-6.391 -6.512,-6.391 l -3.723,0 c -4.121,0 -6.383,2.93 -6.383,6.391 l 0,74.02 -22.855,0"
         style="fill:#100f0d;fill-opacity:1;fill-rule:nonzero;stroke:none"
         id="path54" /><path
         d="m 982.945,560.27 0,-22.321 29.915,0 c 3.71,0 6.64,-2.41 6.64,-6.527 l 0,-3.184 c 0,-4.117 -2.93,-6.5 -6.64,-6.5 l -29.915,0 0,-25.668 41.335,0 c 3.99,0 6.64,-2.91 6.64,-6.371 l 0,-3.449 c 0,-3.602 -2.65,-6.391 -6.64,-6.391 l -51.561,0 c -4.531,0 -6.524,2.93 -6.524,6.391 l 0,83.73 c 0,3.45 1.993,6.5 6.524,6.5 l 49.171,0 c 3.45,0 6.38,-2.378 6.38,-6.5 l 0,-3.191 c 0,-4 -2.93,-6.519 -6.38,-6.519 l -38.945,0"
         style="fill:#100f0d;fill-opacity:1;fill-rule:nonzero;stroke:none"
         id="path56" /><path
         d="m 1081.8,495.949 c 18.07,0 29.77,13.422 29.77,32.039 0,19.25 -11.3,32.422 -29.9,32.422 l -13.03,0 0,-64.461 13.16,0 z m -23.4,-16.09 c -4.38,0 -6.25,3.071 -6.25,6.391 l 0,83.73 c 0,3.321 2,6.5 6.25,6.5 l 22.74,0 c 28.16,0 46.91,-19.14 46.91,-48.492 0,-28.578 -19.8,-48.129 -46.66,-48.129 l -22.99,0"
         style="fill:#100f0d;fill-opacity:1;fill-rule:nonzero;stroke:none"
         id="path58" /><path
         d="m 1168.01,560.27 0,-22.321 29.91,0 c 3.73,0 6.66,-2.41 6.66,-6.527 l 0,-3.184 c 0,-4.117 -2.93,-6.5 -6.66,-6.5 l -29.91,0 0,-25.668 41.34,0 c 3.99,0 6.65,-2.91 6.65,-6.371 l 0,-3.449 c 0,-3.602 -2.66,-6.391 -6.65,-6.391 l -51.56,0 c -4.52,0 -6.52,2.93 -6.52,6.391 l 0,83.73 c 0,3.45 2,6.5 6.52,6.5 l 49.17,0 c 3.46,0 6.38,-2.378 6.38,-6.5 l 0,-3.191 c 0,-4 -2.92,-6.519 -6.38,-6.519 l -38.95,0"
         style="fill:#100f0d;fill-opacity:1;fill-rule:nonzero;stroke:none"
         id="path60" /><path
         d="m 1243.48,479.859 c -4.52,0 -6.39,3.071 -6.39,6.391 l 0,83.73 c 0,3.321 2.13,6.5 6.39,6.5 l 3.85,0 c 4.26,0 6.39,-3.179 6.39,-6.5 l 0,-73.769 38.27,0 c 3.33,0 6.37,-1.992 6.37,-6.371 l 0,-3.59 c 0,-4.398 -3.04,-6.391 -6.37,-6.391 l -48.51,0"
         style="fill:#100f0d;fill-opacity:1;fill-rule:nonzero;stroke:none"
         id="path62" /><path
         d="m 1318.4,570.109 c 0,3.582 2.13,6.371 6.39,6.371 l 3.71,0 c 4.26,0 6.52,-2.789 6.52,-6.371 l 0,-84 c 0,-3.461 -2.12,-6.25 -6.52,-6.25 l -3.58,0 c -4.25,0 -6.52,2.789 -6.52,6.25 l 0,84"
         style="fill:#100f0d;fill-opacity:1;fill-rule:nonzero;stroke:none"
         id="path64" /><path
         d="m 1413.95,506.852 c 0,-17.813 -11.03,-28.043 -28.85,-28.043 -17.27,0 -28.31,10.48 -28.31,27.773 l 0,3.066 c 0,3.321 2.13,6.5 6.65,6.5 l 3.72,0 c 4.52,0 6.38,-3.179 6.38,-6.5 l 0,-3.339 c 0,-7.039 4.26,-11.68 11.56,-11.68 7.31,0 12.37,4.781 12.37,11.953 l 0,63.398 c 0,3.321 1.85,6.5 6.37,6.5 l 3.59,0 c 4.52,0 6.52,-3.179 6.52,-6.5 l 0,-63.128"
         style="fill:#100f0d;fill-opacity:1;fill-rule:nonzero;stroke:none"
         id="path66" /><path
         d="m 1463.75,520.27 -5.72,-6.25 0,-27.77 c 0,-3.32 -2.25,-6.391 -6.5,-6.391 l -3.86,0 c -4.25,0 -6.51,3.071 -6.51,6.391 l 0,83.73 c 0,3.711 2.13,6.5 6.64,6.5 l 3.73,0 c 4.25,0 6.5,-2.789 6.5,-6.5 l 0,-34.16 32.83,37.481 c 1.2,1.328 3.85,3.179 6.92,3.179 l 5.97,0 c 5.32,0 6.52,-5.171 3.33,-8.769 l -32.3,-35.621 35.89,-43.32 c 3.05,-3.711 1.33,-8.911 -3.59,-8.911 l -6.38,0 c -2.39,0 -5.32,1.602 -7.18,3.981 l -29.77,36.43"
         style="fill:#100f0d;fill-opacity:1;fill-rule:nonzero;stroke:none"
         id="path68" /><path
         d="m 722.188,398.32 -3.86,-1.468 c -3.449,-1.192 -6.773,0.386 -7.973,3.73 -3.32,8.637 -9.703,14.887 -20.199,14.887 -15.152,0 -24.058,-15.16 -24.058,-33.77 0,-19.14 8.242,-33.23 23.925,-33.23 14.086,0 21.661,9.57 22.196,22.601 l -16.211,0 c -3.59,0 -6.516,2.129 -6.516,6.25 l 0,3.321 c 0,3.988 2.656,6.507 6.375,6.507 l 26.453,0 c 3.719,0 6.242,-2.25 6.242,-6.25 l 0,-4.648 c 0,-27.25 -16.343,-43.602 -39.203,-43.602 -24.984,0 -39.742,21 -39.742,48.911 0,28.05 16.617,49.839 40.672,49.839 17.941,0 30.832,-10.089 35.617,-25.25 1.199,-3.578 -0.265,-6.636 -3.718,-7.828"
         style="fill:#100f0d;fill-opacity:1;fill-rule:nonzero;stroke:none"
         id="path70" /><path
         d="m 769.195,414.141 0,-22.352 29.907,0 c 3.718,0 6.644,-2.379 6.644,-6.5 l 0,-3.18 c 0,-4.121 -2.926,-6.527 -6.644,-6.527 l -29.907,0 0,-25.641 41.332,0 c 3.989,0 6.645,-2.929 6.645,-6.39 l 0,-3.461 c 0,-3.57 -2.656,-6.36 -6.645,-6.36 l -51.562,0 c -4.524,0 -6.516,2.911 -6.516,6.36 l 0,83.73 c 0,3.461 1.992,6.532 6.516,6.532 l 49.176,0 c 3.453,0 6.375,-2.403 6.375,-6.532 l 0,-3.179 c 0,-3.981 -2.922,-6.5 -6.375,-6.5 l -38.946,0"
         style="fill:#100f0d;fill-opacity:1;fill-rule:nonzero;stroke:none"
         id="path72" /><path
         d="m 886.914,430.352 c 3.32,0 5.582,-1.883 6.246,-5.063 l 11.828,-59.937 12.36,59.937 c 0.664,3.07 2.925,5.063 6.246,5.063 l 4.918,0 c 4.121,0 6.785,-2.793 5.711,-7.051 l -20.594,-84.789 c -0.664,-2.793 -2.793,-4.782 -6.113,-4.782 l -6.246,0 c -3.325,0 -5.848,1.719 -6.512,4.918 l -11.301,61.934 -11.43,-61.934 c -0.664,-3.199 -3.058,-4.918 -6.246,-4.918 l -6.379,0 c -3.324,0 -5.449,1.989 -6.109,4.782 l -20.738,84.648 c -1.063,4.262 1.465,7.192 5.847,7.192 l 4.918,0 c 3.188,0 5.45,-1.993 6.114,-5.063 l 12.628,-59.937 11.692,59.937 c 0.664,3.18 2.926,5.063 6.113,5.063 l 7.047,0"
         style="fill:#100f0d;fill-opacity:1;fill-rule:nonzero;stroke:none"
         id="path74" /><path
         d="m 973.129,414.141 0,-22.352 29.901,0 c 3.72,0 6.64,-2.379 6.64,-6.5 l 0,-3.18 c 0,-4.121 -2.92,-6.527 -6.64,-6.527 l -29.901,0 0,-25.641 41.331,0 c 3.98,0 6.64,-2.929 6.64,-6.39 l 0,-3.461 c 0,-3.57 -2.66,-6.36 -6.64,-6.36 l -51.565,0 c -4.52,0 -6.512,2.911 -6.512,6.36 l 0,83.73 c 0,3.461 1.992,6.532 6.512,6.532 l 49.185,0 c 3.44,0 6.36,-2.403 6.36,-6.532 l 0,-3.179 c 0,-3.981 -2.92,-6.5 -6.36,-6.5 l -38.951,0"
         style="fill:#100f0d;fill-opacity:1;fill-rule:nonzero;stroke:none"
         id="path76" /><path
         d="m 1108.92,362.559 c 0,-15.137 -13.82,-29.911 -36.15,-29.911 -21.4,0 -37.22,11.313 -37.61,33.5 0,3.59 2.38,6.524 6.25,6.524 l 4.38,0 c 3.73,0 6.51,-2.262 6.77,-6.25 0.8,-11.973 8.38,-17.563 20.21,-17.563 11.43,0 18.6,6 18.6,13.301 0,5.731 -3.32,9.442 -11.82,11.43 -5.05,1.191 -10.5,2.66 -16.09,4.262 -11.16,3.179 -24.18,9.707 -24.18,25.507 0,17.95 14.48,28.039 32.95,28.039 17.55,0 32.03,-10.757 33.77,-26.968 0.39,-3.848 -1.86,-6.782 -6.39,-6.782 l -3.84,0 c -3.73,0 -6.39,2.524 -6.78,5.981 -0.8,7.973 -7.85,12.09 -17.01,12.09 -9.18,0 -15.82,-4.918 -15.69,-11.949 0.13,-5.86 6.12,-8.641 12.62,-10.372 5.19,-1.468 9.57,-2.519 15.02,-3.847 17.29,-3.992 24.99,-13.031 24.99,-26.992"
         style="fill:#100f0d;fill-opacity:1;fill-rule:nonzero;stroke:none"
         id="path78" /><path
         d="m 1121.92,414.141 c -3.72,0 -6.39,2.519 -6.39,6.5 l 0,3.179 c 0,3.989 2.67,6.532 6.39,6.532 l 62.32,0 c 3.73,0 6.39,-2.543 6.39,-6.532 l 0,-3.179 c 0,-3.981 -2.66,-6.5 -6.39,-6.5 l -22.85,0 0,-74.051 c 0,-3.449 -2.39,-6.36 -6.51,-6.36 l -3.72,0 c -4.12,0 -6.39,2.911 -6.39,6.36 l 0,74.051 -22.85,0"
         style="fill:#100f0d;fill-opacity:1;fill-rule:nonzero;stroke:none"
         id="path80" /></g></g></svg>